<svg xmlns="http://www.w3.org/2000/svg" xmlns:xlink="http://www.w3.org/1999/xlink" x="0" y="0" version="1.1" viewBox="0 0 140.86 83.37" xml:space="preserve" style="enable-background:new 0 0 140.86 83.37"><style type="text/css">.st2{fill:#58595b}.st29{fill:#ed1c24}</style><g id="Layer_1"><g id="BUILDS_1_"><path d="M30.44,37.12c0,0,3.31-0.89,3.31-5.33c0-4.44-3.46-5.81-7.02-5.81s-13.89,0-13.89,0v25.19c0,0,5.74,0,13.32,0 c7.58,0,8.56-5.17,8.56-8.96C34.72,38.41,30.44,37.12,30.44,37.12z M19.34,29.61c3.21,0,7.75-0.05,7.75,2.66 c0,3.23-2.86,3.23-7.75,3.23C19.34,35.5,19.34,30.35,19.34,29.61z M19.34,46.33c0,0,0-5.86,0-6.71c3.51,0,8.47-0.05,8.47,3.03 C27.82,46.33,24.69,46.33,19.34,46.33z"/><g><path d="M48.25,51.97c-8.2,0-10.66-5.93-10.66-11.55s0-14.45,0-14.45h7.59c0.2,1.82-0.18,4.98-1.45,7.21 c-1.46,2.56-2.21,5.26-2.18,6.96c0.04,2.77,2.06,5.97,6.7,5.97h0.04c4.64,0,6.66-3.2,6.7-5.97c0.02-1.7-0.73-4.41-2.18-6.96 c-1.27-2.24-1.65-5.4-1.45-7.21h7.59c0,0,0,8.84,0,14.45s-2.47,11.55-10.66,11.55H48.25z" class="st29"/><path d="M48.26,25.97h-3.17c0,0,0.12-4.03,2.23-4.28c0,0,0.05-0.79,0.94-0.79h0.06c0.89,0,0.94,0.79,0.94,0.79 c2.1,0.26,2.23,4.28,2.23,4.28h-3.17H48.26z" class="st2"/></g><rect width="6.46" height="25.19" x="63.63" y="25.97"/><polygon points="74.53 51.17 74.53 25.97 81.15 25.97 81.15 45.59 88.13 45.59 88.13 51.17"/><path d="M99.8,25.97c-5.49,0-8.88,0-8.88,0v25.19c0,0,0.9,0,8.4,0c7.5,0,14.13-4.04,14.13-12.6 C113.45,30.01,108.11,25.97,99.8,25.97z M100.81,45.68c-2.87,0-3.02,0-3.02,0V31.55c0,0,0.64,0,2.75,0c3.18,0,5.88,2.26,5.88,7.06 S103.68,45.68,100.81,45.68z"/><path d="M128.24,32.21l2.91-4.97c0,0-3.45-2.06-8.42-2.06c-4.97,0-8.3,3.03-8.3,7.81s1.88,6.6,5.27,7.51 c3.39,0.91,6.72,1.76,5.27,4.3c-1.45,2.54-4.66,1.88-8.54-0.79l-2.99,5.27c0,0,4.14,2.79,9.35,2.79c5.21,0,9.33-3.51,9.33-7.87 s-1.45-7.21-5.69-8.24s-5.45-1.76-5.21-3.39C121.46,30.94,124.61,29.3,128.24,32.21z"/></g></g></svg>