<svg xmlns="http://www.w3.org/2000/svg" xmlns:svg="http://www.w3.org/2000/svg" id="svg2" width="800" height="400" version="1.1" viewBox="0 0 800 400" xml:space="preserve"><metadata id="metadata8"/><defs id="defs6"><clipPath id="clipPath38" clipPathUnits="userSpaceOnUse"><path id="path36" d="m 448.752,132.969 -0.474,-2.807 c -0.076,-0.446 0.253,-0.829 0.636,-0.894 v 0 l 8.928,-1.508 c 0.446,-0.075 0.83,0.253 0.894,0.637 v 0 l 0.474,2.805 c 0.075,0.446 -0.253,0.83 -0.636,0.895 v 0 l -8.928,1.507 c -0.043,0.007 -0.086,0.011 -0.128,0.011 v 0 c -0.39,0 -0.708,-0.302 -0.766,-0.646"/></clipPath><linearGradient id="linearGradient58" x1="0" x2="1" y1="0" y2="0" gradientTransform="matrix(10.493938,-1.7720747,1.7720747,10.493938,448.51486,131.56544)" gradientUnits="userSpaceOnUse" spreadMethod="pad"><stop style="stop-opacity:1;stop-color:#818181" id="stop44" offset="0"/><stop style="stop-opacity:1;stop-color:#7e7e7e" id="stop46" offset=".216"/><stop style="stop-opacity:1;stop-color:#747474" id="stop48" offset=".378"/><stop style="stop-opacity:1;stop-color:#646464" id="stop50" offset=".522"/><stop style="stop-opacity:1;stop-color:#4e4e4e" id="stop52" offset=".654"/><stop style="stop-opacity:1;stop-color:#8a8a8b" id="stop54" offset=".872"/><stop style="stop-opacity:1;stop-color:#8a8a8b" id="stop56" offset="1"/></linearGradient><clipPath id="clipPath68" clipPathUnits="userSpaceOnUse"><path id="path66" d="m 446.706,120.852 -0.474,-2.806 c -0.076,-0.447 0.254,-0.83 0.636,-0.895 v 0 l 8.928,-1.507 c 0.446,-0.076 0.83,0.254 0.895,0.636 v 0 l 0.473,2.806 c 0.076,0.447 -0.253,0.83 -0.635,0.895 v 0 l -8.928,1.507 c -0.044,0.008 -0.087,0.011 -0.129,0.011 v 0 c -0.39,0 -0.708,-0.302 -0.766,-0.647"/></clipPath><linearGradient id="linearGradient88" x1="0" x2="1" y1="0" y2="0" gradientTransform="matrix(10.493938,-1.7720747,1.7720747,10.493938,446.46878,119.44898)" gradientUnits="userSpaceOnUse" spreadMethod="pad"><stop style="stop-opacity:1;stop-color:#818181" id="stop74" offset="0"/><stop style="stop-opacity:1;stop-color:#7e7e7e" id="stop76" offset=".216"/><stop style="stop-opacity:1;stop-color:#747474" id="stop78" offset=".378"/><stop style="stop-opacity:1;stop-color:#646464" id="stop80" offset=".522"/><stop style="stop-opacity:1;stop-color:#4e4e4e" id="stop82" offset=".654"/><stop style="stop-opacity:1;stop-color:#8a8a8b" id="stop84" offset=".872"/><stop style="stop-opacity:1;stop-color:#8a8a8b" id="stop86" offset="1"/></linearGradient><clipPath id="clipPath98" clipPathUnits="userSpaceOnUse"><path id="path96" d="m 444.659,108.735 -0.474,-2.805 c -0.064,-0.383 0.255,-0.831 0.637,-0.895 v 0 l 8.928,-1.508 c 0.447,-0.075 0.83,0.254 0.895,0.636 v 0 l 0.473,2.806 c 0.075,0.447 -0.253,0.829 -0.636,0.895 v 0 l -8.928,1.507 c -0.044,0.007 -0.087,0.011 -0.13,0.011 v 0 c -0.389,0 -0.706,-0.302 -0.765,-0.647"/></clipPath><linearGradient id="linearGradient118" x1="0" x2="1" y1="0" y2="0" gradientTransform="matrix(10.493938,-1.7720747,1.7720747,10.493938,444.42273,107.33252)" gradientUnits="userSpaceOnUse" spreadMethod="pad"><stop style="stop-opacity:1;stop-color:#818181" id="stop104" offset="0"/><stop style="stop-opacity:1;stop-color:#7e7e7e" id="stop106" offset=".216"/><stop style="stop-opacity:1;stop-color:#747474" id="stop108" offset=".378"/><stop style="stop-opacity:1;stop-color:#646464" id="stop110" offset=".522"/><stop style="stop-opacity:1;stop-color:#4e4e4e" id="stop112" offset=".654"/><stop style="stop-opacity:1;stop-color:#8a8a8b" id="stop114" offset=".872"/><stop style="stop-opacity:1;stop-color:#8a8a8b" id="stop116" offset="1"/></linearGradient><clipPath id="clipPath128" clipPathUnits="userSpaceOnUse"><path id="path126" d="m 442.614,96.62 -0.475,-2.807 c -0.063,-0.382 0.254,-0.829 0.637,-0.894 v 0 l 8.928,-1.508 c 0.446,-0.075 0.83,0.253 0.894,0.636 v 0 l 0.475,2.806 c 0.074,0.447 -0.255,0.83 -0.638,0.894 v 0 l -8.928,1.508 c -0.043,0.007 -0.086,0.011 -0.128,0.011 v 0 c -0.389,0 -0.708,-0.301 -0.765,-0.646"/></clipPath><linearGradient id="linearGradient148" x1="0" x2="1" y1="0" y2="0" gradientTransform="matrix(10.493938,-1.7720747,1.7720747,10.493938,442.37665,95.216065)" gradientUnits="userSpaceOnUse" spreadMethod="pad"><stop style="stop-opacity:1;stop-color:#818181" id="stop134" offset="0"/><stop style="stop-opacity:1;stop-color:#7e7e7e" id="stop136" offset=".216"/><stop style="stop-opacity:1;stop-color:#747474" id="stop138" offset=".378"/><stop style="stop-opacity:1;stop-color:#646464" id="stop140" offset=".522"/><stop style="stop-opacity:1;stop-color:#4e4e4e" id="stop142" offset=".654"/><stop style="stop-opacity:1;stop-color:#8a8a8b" id="stop144" offset=".872"/><stop style="stop-opacity:1;stop-color:#8a8a8b" id="stop146" offset="1"/></linearGradient><clipPath id="clipPath158" clipPathUnits="userSpaceOnUse"><path id="path156" d="m 440.567,84.503 -0.473,-2.806 c -0.065,-0.383 0.253,-0.83 0.635,-0.895 v 0 l 8.928,-1.508 c 0.447,-0.075 0.83,0.253 0.895,0.637 v 0 l 0.474,2.805 c 0.076,0.446 -0.254,0.831 -0.636,0.895 v 0 l -8.928,1.508 c -0.043,0.007 -0.086,0.011 -0.128,0.011 v 0 c -0.39,0 -0.708,-0.302 -0.767,-0.647"/></clipPath><linearGradient id="linearGradient178" x1="0" x2="1" y1="0" y2="0" gradientTransform="matrix(10.493938,-1.7720747,1.7720747,10.493938,440.3306,83.099609)" gradientUnits="userSpaceOnUse" spreadMethod="pad"><stop style="stop-opacity:1;stop-color:#818181" id="stop164" offset="0"/><stop style="stop-opacity:1;stop-color:#7e7e7e" id="stop166" offset=".216"/><stop style="stop-opacity:1;stop-color:#747474" id="stop168" offset=".378"/><stop style="stop-opacity:1;stop-color:#646464" id="stop170" offset=".522"/><stop style="stop-opacity:1;stop-color:#4e4e4e" id="stop172" offset=".654"/><stop style="stop-opacity:1;stop-color:#8a8a8b" id="stop174" offset=".872"/><stop style="stop-opacity:1;stop-color:#8a8a8b" id="stop176" offset="1"/></linearGradient><clipPath id="clipPath188" clipPathUnits="userSpaceOnUse"><path id="path186" d="m 438.521,72.386 -0.473,-2.806 c -0.065,-0.383 0.253,-0.83 0.635,-0.895 v 0 l 8.928,-1.507 c 0.447,-0.076 0.83,0.254 0.895,0.636 v 0 l 0.473,2.806 c 0.077,0.447 -0.252,0.83 -0.635,0.895 v 0 l -8.928,1.507 c -0.044,0.008 -0.086,0.011 -0.128,0.011 v 0 c -0.39,0 -0.708,-0.302 -0.767,-0.647"/></clipPath><linearGradient id="linearGradient208" x1="0" x2="1" y1="0" y2="0" gradientTransform="matrix(10.493938,-1.7720747,1.7720747,10.493938,438.28455,70.983147)" gradientUnits="userSpaceOnUse" spreadMethod="pad"><stop style="stop-opacity:1;stop-color:#818181" id="stop194" offset="0"/><stop style="stop-opacity:1;stop-color:#7e7e7e" id="stop196" offset=".216"/><stop style="stop-opacity:1;stop-color:#747474" id="stop198" offset=".378"/><stop style="stop-opacity:1;stop-color:#646464" id="stop200" offset=".522"/><stop style="stop-opacity:1;stop-color:#4e4e4e" id="stop202" offset=".654"/><stop style="stop-opacity:1;stop-color:#8a8a8b" id="stop204" offset=".872"/><stop style="stop-opacity:1;stop-color:#8a8a8b" id="stop206" offset="1"/></linearGradient><clipPath id="clipPath218" clipPathUnits="userSpaceOnUse"><path id="path216" d="m 545.774,148.985 -1.507,-8.927 c -0.076,-0.446 0.253,-0.831 0.635,-0.895 v 0 l 2.806,-0.474 c 0.446,-0.075 0.83,0.255 0.894,0.636 v 0 l 1.509,8.929 c 0.074,0.446 -0.253,0.829 -0.637,0.894 v 0 l -2.805,0.473 c -0.044,0.008 -0.087,0.011 -0.129,0.011 v 0 c -0.39,0 -0.707,-0.301 -0.766,-0.647"/></clipPath><linearGradient id="linearGradient238" x1="0" x2="1" y1="0" y2="0" gradientTransform="matrix(-1.7720747,-10.493938,10.493938,-1.7720747,548.07141,149.38483)" gradientUnits="userSpaceOnUse" spreadMethod="pad"><stop style="stop-opacity:1;stop-color:#818181" id="stop224" offset="0"/><stop style="stop-opacity:1;stop-color:#7e7e7e" id="stop226" offset=".216"/><stop style="stop-opacity:1;stop-color:#747474" id="stop228" offset=".378"/><stop style="stop-opacity:1;stop-color:#646464" id="stop230" offset=".522"/><stop style="stop-opacity:1;stop-color:#4e4e4e" id="stop232" offset=".654"/><stop style="stop-opacity:1;stop-color:#8a8a8b" id="stop234" offset=".872"/><stop style="stop-opacity:1;stop-color:#8a8a8b" id="stop236" offset="1"/></linearGradient><clipPath id="clipPath248" clipPathUnits="userSpaceOnUse"><path id="path246" d="m 533.657,151.032 -1.507,-8.928 c -0.075,-0.447 0.253,-0.829 0.636,-0.895 v 0 l 2.806,-0.473 c 0.446,-0.076 0.83,0.254 0.894,0.636 v 0 l 1.508,8.927 c 0.075,0.447 -0.254,0.831 -0.636,0.895 v 0 l -2.807,0.474 c -0.043,0.007 -0.086,0.011 -0.128,0.011 v 0 c -0.389,0 -0.708,-0.302 -0.766,-0.647"/></clipPath><linearGradient id="linearGradient268" x1="0" x2="1" y1="0" y2="0" gradientTransform="matrix(-1.7720747,-10.493938,10.493938,-1.7720747,535.95496,151.43089)" gradientUnits="userSpaceOnUse" spreadMethod="pad"><stop style="stop-opacity:1;stop-color:#818181" id="stop254" offset="0"/><stop style="stop-opacity:1;stop-color:#7e7e7e" id="stop256" offset=".216"/><stop style="stop-opacity:1;stop-color:#747474" id="stop258" offset=".378"/><stop style="stop-opacity:1;stop-color:#646464" id="stop260" offset=".522"/><stop style="stop-opacity:1;stop-color:#4e4e4e" id="stop262" offset=".654"/><stop style="stop-opacity:1;stop-color:#8a8a8b" id="stop264" offset=".872"/><stop style="stop-opacity:1;stop-color:#8a8a8b" id="stop266" offset="1"/></linearGradient><clipPath id="clipPath278" clipPathUnits="userSpaceOnUse"><path id="path276" d="m 521.541,153.077 -1.507,-8.927 c -0.076,-0.447 0.253,-0.83 0.636,-0.894 v 0 l 2.806,-0.475 c 0.446,-0.075 0.83,0.254 0.894,0.637 v 0 l 1.508,8.928 c 0.075,0.446 -0.254,0.829 -0.637,0.894 v 0 l -2.805,0.474 c -0.034,0.005 -0.068,0.008 -0.103,0.008 v 0 c -0.356,0 -0.733,-0.295 -0.792,-0.645"/></clipPath><linearGradient id="linearGradient298" x1="0" x2="1" y1="0" y2="0" gradientTransform="matrix(-1.7720747,-10.493938,10.493938,-1.7720747,523.8385,153.47696)" gradientUnits="userSpaceOnUse" spreadMethod="pad"><stop style="stop-opacity:1;stop-color:#818181" id="stop284" offset="0"/><stop style="stop-opacity:1;stop-color:#7e7e7e" id="stop286" offset=".216"/><stop style="stop-opacity:1;stop-color:#747474" id="stop288" offset=".378"/><stop style="stop-opacity:1;stop-color:#646464" id="stop290" offset=".522"/><stop style="stop-opacity:1;stop-color:#4e4e4e" id="stop292" offset=".654"/><stop style="stop-opacity:1;stop-color:#8a8a8b" id="stop294" offset=".872"/><stop style="stop-opacity:1;stop-color:#8a8a8b" id="stop296" offset="1"/></linearGradient><clipPath id="clipPath308" clipPathUnits="userSpaceOnUse"><path id="path306" d="m 509.425,155.124 -1.508,-8.928 c -0.075,-0.446 0.253,-0.83 0.636,-0.895 v 0 l 2.806,-0.473 c 0.447,-0.077 0.829,0.253 0.894,0.636 v 0 l 1.507,8.927 c 0.076,0.447 -0.252,0.831 -0.635,0.895 v 0 l -2.806,0.473 c -0.034,0.006 -0.069,0.009 -0.103,0.009 v 0 c -0.356,0 -0.733,-0.295 -0.791,-0.644"/></clipPath><linearGradient id="linearGradient328" x1="0" x2="1" y1="0" y2="0" gradientTransform="matrix(-1.7720747,-10.493938,10.493938,-1.7720747,511.72205,155.52301)" gradientUnits="userSpaceOnUse" spreadMethod="pad"><stop style="stop-opacity:1;stop-color:#818181" id="stop314" offset="0"/><stop style="stop-opacity:1;stop-color:#7e7e7e" id="stop316" offset=".216"/><stop style="stop-opacity:1;stop-color:#747474" id="stop318" offset=".378"/><stop style="stop-opacity:1;stop-color:#646464" id="stop320" offset=".522"/><stop style="stop-opacity:1;stop-color:#4e4e4e" id="stop322" offset=".654"/><stop style="stop-opacity:1;stop-color:#8a8a8b" id="stop324" offset=".872"/><stop style="stop-opacity:1;stop-color:#8a8a8b" id="stop326" offset="1"/></linearGradient><clipPath id="clipPath338" clipPathUnits="userSpaceOnUse"><path id="path336" d="m 497.309,157.17 -1.508,-8.927 c -0.076,-0.447 0.253,-0.831 0.635,-0.895 v 0 l 2.807,-0.474 c 0.445,-0.075 0.829,0.253 0.893,0.636 v 0 l 1.509,8.927 c 0.074,0.447 -0.253,0.831 -0.637,0.895 v 0 l -2.806,0.474 c -0.033,0.006 -0.067,0.008 -0.102,0.008 v 0 c -0.355,0 -0.732,-0.295 -0.791,-0.644"/></clipPath><linearGradient id="linearGradient358" x1="0" x2="1" y1="0" y2="0" gradientTransform="matrix(-1.7720747,-10.493938,10.493938,-1.7720747,499.60559,157.56908)" gradientUnits="userSpaceOnUse" spreadMethod="pad"><stop style="stop-opacity:1;stop-color:#818181" id="stop344" offset="0"/><stop style="stop-opacity:1;stop-color:#7e7e7e" id="stop346" offset=".216"/><stop style="stop-opacity:1;stop-color:#747474" id="stop348" offset=".378"/><stop style="stop-opacity:1;stop-color:#646464" id="stop350" offset=".522"/><stop style="stop-opacity:1;stop-color:#4e4e4e" id="stop352" offset=".654"/><stop style="stop-opacity:1;stop-color:#8a8a8b" id="stop354" offset=".872"/><stop style="stop-opacity:1;stop-color:#8a8a8b" id="stop356" offset="1"/></linearGradient><clipPath id="clipPath368" clipPathUnits="userSpaceOnUse"><path id="path366" d="m 485.192,159.215 -1.509,-8.927 c -0.074,-0.446 0.254,-0.83 0.638,-0.894 v 0 l 2.805,-0.474 c 0.446,-0.075 0.83,0.253 0.895,0.636 v 0 l 1.507,8.928 c 0.076,0.446 -0.254,0.829 -0.635,0.894 v 0 l -2.807,0.474 c -0.034,0.005 -0.068,0.008 -0.103,0.008 v 0 c -0.356,0 -0.733,-0.295 -0.791,-0.645"/></clipPath><linearGradient id="linearGradient388" x1="0" x2="1" y1="0" y2="0" gradientTransform="matrix(-1.7720747,-10.493938,10.493938,-1.7720747,487.48914,159.61514)" gradientUnits="userSpaceOnUse" spreadMethod="pad"><stop style="stop-opacity:1;stop-color:#818181" id="stop374" offset="0"/><stop style="stop-opacity:1;stop-color:#7e7e7e" id="stop376" offset=".216"/><stop style="stop-opacity:1;stop-color:#747474" id="stop378" offset=".378"/><stop style="stop-opacity:1;stop-color:#646464" id="stop380" offset=".522"/><stop style="stop-opacity:1;stop-color:#4e4e4e" id="stop382" offset=".654"/><stop style="stop-opacity:1;stop-color:#8a8a8b" id="stop384" offset=".872"/><stop style="stop-opacity:1;stop-color:#8a8a8b" id="stop386" offset="1"/></linearGradient><clipPath id="clipPath398" clipPathUnits="userSpaceOnUse"><path id="path396" d="m 555.669,52.997 -0.473,-2.806 c -0.076,-0.446 0.253,-0.83 0.635,-0.894 v 0 l 8.929,-1.508 c 0.446,-0.075 0.829,0.254 0.894,0.636 v 0 l 0.474,2.807 c 0.075,0.446 -0.254,0.829 -0.636,0.894 v 0 l -8.928,1.508 c -0.044,0.007 -0.087,0.011 -0.129,0.011 v 0 c -0.389,0 -0.707,-0.302 -0.766,-0.648"/></clipPath><linearGradient id="linearGradient418" x1="0" x2="1" y1="0" y2="0" gradientTransform="matrix(-10.493938,1.7720747,-1.7720747,-10.493938,565.89081,49.828255)" gradientUnits="userSpaceOnUse" spreadMethod="pad"><stop style="stop-opacity:1;stop-color:#818181" id="stop404" offset="0"/><stop style="stop-opacity:1;stop-color:#7e7e7e" id="stop406" offset=".216"/><stop style="stop-opacity:1;stop-color:#747474" id="stop408" offset=".378"/><stop style="stop-opacity:1;stop-color:#646464" id="stop410" offset=".522"/><stop style="stop-opacity:1;stop-color:#4e4e4e" id="stop412" offset=".654"/><stop style="stop-opacity:1;stop-color:#8a8a8b" id="stop414" offset=".872"/><stop style="stop-opacity:1;stop-color:#8a8a8b" id="stop416" offset="1"/></linearGradient><clipPath id="clipPath428" clipPathUnits="userSpaceOnUse"><path id="path426" d="m 557.716,65.113 -0.475,-2.805 c -0.075,-0.447 0.254,-0.831 0.637,-0.895 v 0 l 8.928,-1.508 c 0.446,-0.075 0.829,0.255 0.894,0.637 v 0 l 0.474,2.805 c 0.075,0.447 -0.254,0.831 -0.636,0.895 v 0 l -8.929,1.508 c -0.043,0.008 -0.085,0.011 -0.127,0.011 v 0 c -0.39,0 -0.708,-0.302 -0.766,-0.648"/></clipPath><linearGradient id="linearGradient448" x1="0" x2="1" y1="0" y2="0" gradientTransform="matrix(-10.493938,1.7720747,-1.7720747,-10.493938,567.93689,61.944714)" gradientUnits="userSpaceOnUse" spreadMethod="pad"><stop style="stop-opacity:1;stop-color:#818181" id="stop434" offset="0"/><stop style="stop-opacity:1;stop-color:#7e7e7e" id="stop436" offset=".216"/><stop style="stop-opacity:1;stop-color:#747474" id="stop438" offset=".378"/><stop style="stop-opacity:1;stop-color:#646464" id="stop440" offset=".522"/><stop style="stop-opacity:1;stop-color:#4e4e4e" id="stop442" offset=".654"/><stop style="stop-opacity:1;stop-color:#8a8a8b" id="stop444" offset=".872"/><stop style="stop-opacity:1;stop-color:#8a8a8b" id="stop446" offset="1"/></linearGradient><clipPath id="clipPath458" clipPathUnits="userSpaceOnUse"><path id="path456" d="m 559.761,77.231 -0.473,-2.807 c -0.076,-0.447 0.253,-0.829 0.636,-0.894 v 0 l 8.927,-1.507 c 0.447,-0.076 0.831,0.252 0.895,0.635 v 0 l 0.473,2.806 c 0.065,0.383 -0.253,0.83 -0.635,0.895 v 0 l -8.928,1.507 c -0.044,0.008 -0.087,0.011 -0.129,0.011 v 0 c -0.389,0 -0.707,-0.301 -0.766,-0.646"/></clipPath><linearGradient id="linearGradient478" x1="0" x2="1" y1="0" y2="0" gradientTransform="matrix(-10.493938,1.7720747,-1.7720747,-10.493938,569.98297,74.061165)" gradientUnits="userSpaceOnUse" spreadMethod="pad"><stop style="stop-opacity:1;stop-color:#818181" id="stop464" offset="0"/><stop style="stop-opacity:1;stop-color:#7e7e7e" id="stop466" offset=".216"/><stop style="stop-opacity:1;stop-color:#747474" id="stop468" offset=".378"/><stop style="stop-opacity:1;stop-color:#646464" id="stop470" offset=".522"/><stop style="stop-opacity:1;stop-color:#4e4e4e" id="stop472" offset=".654"/><stop style="stop-opacity:1;stop-color:#8a8a8b" id="stop474" offset=".872"/><stop style="stop-opacity:1;stop-color:#8a8a8b" id="stop476" offset="1"/></linearGradient><clipPath id="clipPath488" clipPathUnits="userSpaceOnUse"><path id="path486" d="m 561.808,89.347 -0.474,-2.806 c -0.076,-0.446 0.252,-0.83 0.636,-0.894 v 0 l 8.927,-1.509 c 0.446,-0.074 0.831,0.253 0.895,0.637 v 0 l 0.474,2.806 c 0.064,0.382 -0.253,0.83 -0.636,0.894 v 0 l -8.928,1.507 c -0.043,0.007 -0.086,0.011 -0.128,0.011 v 0 c -0.39,0 -0.708,-0.301 -0.766,-0.646"/></clipPath><linearGradient id="linearGradient508" x1="0" x2="1" y1="0" y2="0" gradientTransform="matrix(-10.493938,1.7720747,-1.7720747,-10.493938,572.02899,86.177628)" gradientUnits="userSpaceOnUse" spreadMethod="pad"><stop style="stop-opacity:1;stop-color:#818181" id="stop494" offset="0"/><stop style="stop-opacity:1;stop-color:#7e7e7e" id="stop496" offset=".216"/><stop style="stop-opacity:1;stop-color:#747474" id="stop498" offset=".378"/><stop style="stop-opacity:1;stop-color:#646464" id="stop500" offset=".522"/><stop style="stop-opacity:1;stop-color:#4e4e4e" id="stop502" offset=".654"/><stop style="stop-opacity:1;stop-color:#8a8a8b" id="stop504" offset=".872"/><stop style="stop-opacity:1;stop-color:#8a8a8b" id="stop506" offset="1"/></linearGradient><clipPath id="clipPath518" clipPathUnits="userSpaceOnUse"><path id="path516" d="m 563.854,101.463 -0.474,-2.806 c -0.075,-0.446 0.253,-0.83 0.636,-0.895 v 0 l 8.928,-1.507 c 0.446,-0.076 0.829,0.254 0.894,0.636 v 0 l 0.474,2.807 c 0.065,0.382 -0.253,0.829 -0.636,0.894 v 0 l -8.928,1.508 c -0.043,0.007 -0.086,0.01 -0.128,0.01 v 0 c -0.39,0.001 -0.708,-0.301 -0.766,-0.647"/></clipPath><linearGradient id="linearGradient538" x1="0" x2="1" y1="0" y2="0" gradientTransform="matrix(-10.493938,1.7720747,-1.7720747,-10.493938,574.07507,98.294083)" gradientUnits="userSpaceOnUse" spreadMethod="pad"><stop style="stop-opacity:1;stop-color:#818181" id="stop524" offset="0"/><stop style="stop-opacity:1;stop-color:#7e7e7e" id="stop526" offset=".216"/><stop style="stop-opacity:1;stop-color:#747474" id="stop528" offset=".378"/><stop style="stop-opacity:1;stop-color:#646464" id="stop530" offset=".522"/><stop style="stop-opacity:1;stop-color:#4e4e4e" id="stop532" offset=".654"/><stop style="stop-opacity:1;stop-color:#8a8a8b" id="stop534" offset=".872"/><stop style="stop-opacity:1;stop-color:#8a8a8b" id="stop536" offset="1"/></linearGradient><clipPath id="clipPath548" clipPathUnits="userSpaceOnUse"><path id="path546" d="m 565.899,113.579 -0.473,-2.805 c -0.076,-0.447 0.254,-0.831 0.635,-0.895 v 0 l 8.929,-1.508 c 0.447,-0.075 0.829,0.254 0.894,0.637 v 0 l 0.474,2.805 c 0.065,0.384 -0.254,0.831 -0.636,0.895 v 0 l -8.928,1.507 c -0.044,0.008 -0.087,0.011 -0.129,0.011 v 0 c -0.389,0 -0.707,-0.302 -0.766,-0.647"/></clipPath><linearGradient id="linearGradient568" x1="0" x2="1" y1="0" y2="0" gradientTransform="matrix(-10.493938,1.7720747,-1.7720747,-10.493938,576.12115,110.41055)" gradientUnits="userSpaceOnUse" spreadMethod="pad"><stop style="stop-opacity:1;stop-color:#818181" id="stop554" offset="0"/><stop style="stop-opacity:1;stop-color:#7e7e7e" id="stop556" offset=".216"/><stop style="stop-opacity:1;stop-color:#747474" id="stop558" offset=".378"/><stop style="stop-opacity:1;stop-color:#646464" id="stop560" offset=".522"/><stop style="stop-opacity:1;stop-color:#4e4e4e" id="stop562" offset=".654"/><stop style="stop-opacity:1;stop-color:#8a8a8b" id="stop564" offset=".872"/><stop style="stop-opacity:1;stop-color:#8a8a8b" id="stop566" offset="1"/></linearGradient><clipPath id="clipPath578" clipPathUnits="userSpaceOnUse"><path id="path576" d="m 465.803,42.069 -1.508,-8.928 c -0.075,-0.447 0.253,-0.83 0.637,-0.895 v 0 l 2.805,-0.474 c 0.447,-0.076 0.83,0.254 0.895,0.636 v 0 l 1.507,8.928 c 0.076,0.447 -0.254,0.83 -0.636,0.895 v 0 l -2.805,0.473 c -0.044,0.007 -0.087,0.011 -0.129,0.011 v 0 c -0.39,0 -0.708,-0.301 -0.766,-0.646"/></clipPath><linearGradient id="linearGradient598" x1="0" x2="1" y1="0" y2="0" gradientTransform="matrix(1.7720747,10.493938,-10.493938,1.7720747,466.33423,32.008865)" gradientUnits="userSpaceOnUse" spreadMethod="pad"><stop style="stop-opacity:1;stop-color:#818181" id="stop584" offset="0"/><stop style="stop-opacity:1;stop-color:#7e7e7e" id="stop586" offset=".216"/><stop style="stop-opacity:1;stop-color:#747474" id="stop588" offset=".378"/><stop style="stop-opacity:1;stop-color:#646464" id="stop590" offset=".522"/><stop style="stop-opacity:1;stop-color:#4e4e4e" id="stop592" offset=".654"/><stop style="stop-opacity:1;stop-color:#8a8a8b" id="stop594" offset=".872"/><stop style="stop-opacity:1;stop-color:#8a8a8b" id="stop596" offset="1"/></linearGradient><clipPath id="clipPath608" clipPathUnits="userSpaceOnUse"><path id="path606" d="m 477.919,40.022 -1.507,-8.928 c -0.076,-0.446 0.253,-0.83 0.636,-0.894 v 0 l 2.806,-0.475 c 0.445,-0.075 0.83,0.255 0.894,0.637 v 0 l 1.508,8.928 c 0.075,0.446 -0.254,0.83 -0.636,0.895 v 0 l -2.806,0.473 c -0.044,0.008 -0.086,0.011 -0.128,0.011 v 0 c -0.39,0 -0.708,-0.301 -0.767,-0.647"/></clipPath><linearGradient id="linearGradient628" x1="0" x2="1" y1="0" y2="0" gradientTransform="matrix(1.7720747,10.493938,-10.493938,1.7720747,478.45071,29.962803)" gradientUnits="userSpaceOnUse" spreadMethod="pad"><stop style="stop-opacity:1;stop-color:#818181" id="stop614" offset="0"/><stop style="stop-opacity:1;stop-color:#7e7e7e" id="stop616" offset=".216"/><stop style="stop-opacity:1;stop-color:#747474" id="stop618" offset=".378"/><stop style="stop-opacity:1;stop-color:#646464" id="stop620" offset=".522"/><stop style="stop-opacity:1;stop-color:#4e4e4e" id="stop622" offset=".654"/><stop style="stop-opacity:1;stop-color:#8a8a8b" id="stop624" offset=".872"/><stop style="stop-opacity:1;stop-color:#8a8a8b" id="stop626" offset="1"/></linearGradient><clipPath id="clipPath638" clipPathUnits="userSpaceOnUse"><path id="path636" d="m 490.036,37.975 -1.508,-8.927 c -0.075,-0.446 0.253,-0.829 0.636,-0.895 v 0 l 2.806,-0.473 c 0.382,-0.064 0.829,0.253 0.894,0.636 v 0 l 1.508,8.928 c 0.075,0.446 -0.253,0.83 -0.636,0.894 v 0 l -2.805,0.475 c -0.043,0.007 -0.086,0.01 -0.127,0.01 v 0 c -0.391,0 -0.71,-0.302 -0.768,-0.648"/></clipPath><linearGradient id="linearGradient658" x1="0" x2="1" y1="0" y2="0" gradientTransform="matrix(1.7720747,10.493938,-10.493938,1.7720747,490.56717,27.916738)" gradientUnits="userSpaceOnUse" spreadMethod="pad"><stop style="stop-opacity:1;stop-color:#818181" id="stop644" offset="0"/><stop style="stop-opacity:1;stop-color:#7e7e7e" id="stop646" offset=".216"/><stop style="stop-opacity:1;stop-color:#747474" id="stop648" offset=".378"/><stop style="stop-opacity:1;stop-color:#646464" id="stop650" offset=".522"/><stop style="stop-opacity:1;stop-color:#4e4e4e" id="stop652" offset=".654"/><stop style="stop-opacity:1;stop-color:#8a8a8b" id="stop654" offset=".872"/><stop style="stop-opacity:1;stop-color:#8a8a8b" id="stop656" offset="1"/></linearGradient><clipPath id="clipPath668" clipPathUnits="userSpaceOnUse"><path id="path666" d="m 502.152,35.93 -1.507,-8.928 c -0.076,-0.447 0.254,-0.83 0.635,-0.895 v 0 l 2.807,-0.473 c 0.382,-0.065 0.829,0.253 0.894,0.635 v 0 l 1.507,8.928 c 0.076,0.448 -0.252,0.83 -0.636,0.895 v 0 l -2.805,0.474 c -0.044,0.007 -0.087,0.011 -0.129,0.011 v 0 c -0.389,0 -0.707,-0.302 -0.766,-0.647"/></clipPath><linearGradient id="linearGradient688" x1="0" x2="1" y1="0" y2="0" gradientTransform="matrix(1.7720747,10.493938,-10.493938,1.7720747,502.68362,25.870674)" gradientUnits="userSpaceOnUse" spreadMethod="pad"><stop style="stop-opacity:1;stop-color:#818181" id="stop674" offset="0"/><stop style="stop-opacity:1;stop-color:#7e7e7e" id="stop676" offset=".216"/><stop style="stop-opacity:1;stop-color:#747474" id="stop678" offset=".378"/><stop style="stop-opacity:1;stop-color:#646464" id="stop680" offset=".522"/><stop style="stop-opacity:1;stop-color:#4e4e4e" id="stop682" offset=".654"/><stop style="stop-opacity:1;stop-color:#8a8a8b" id="stop684" offset=".872"/><stop style="stop-opacity:1;stop-color:#8a8a8b" id="stop686" offset="1"/></linearGradient><clipPath id="clipPath698" clipPathUnits="userSpaceOnUse"><path id="path696" d="m 514.268,33.884 -1.507,-8.928 c -0.075,-0.446 0.253,-0.83 0.637,-0.894 v 0 l 2.805,-0.474 c 0.383,-0.065 0.83,0.253 0.895,0.635 v 0 l 1.507,8.929 c 0.076,0.446 -0.254,0.829 -0.636,0.894 v 0 l -2.806,0.474 c -0.044,0.007 -0.087,0.011 -0.13,0.011 v 0 c -0.388,0 -0.707,-0.302 -0.765,-0.647"/></clipPath><linearGradient id="linearGradient718" x1="0" x2="1" y1="0" y2="0" gradientTransform="matrix(1.7720747,10.493938,-10.493938,1.7720747,514.80005,23.82461)" gradientUnits="userSpaceOnUse" spreadMethod="pad"><stop style="stop-opacity:1;stop-color:#818181" id="stop704" offset="0"/><stop style="stop-opacity:1;stop-color:#7e7e7e" id="stop706" offset=".216"/><stop style="stop-opacity:1;stop-color:#747474" id="stop708" offset=".378"/><stop style="stop-opacity:1;stop-color:#646464" id="stop710" offset=".522"/><stop style="stop-opacity:1;stop-color:#4e4e4e" id="stop712" offset=".654"/><stop style="stop-opacity:1;stop-color:#8a8a8b" id="stop714" offset=".872"/><stop style="stop-opacity:1;stop-color:#8a8a8b" id="stop716" offset="1"/></linearGradient><clipPath id="clipPath728" clipPathUnits="userSpaceOnUse"><path id="path726" d="m 526.385,31.837 -1.507,-8.927 c -0.076,-0.446 0.253,-0.83 0.636,-0.894 v 0 l 2.805,-0.474 c 0.383,-0.065 0.831,0.253 0.895,0.636 v 0 l 1.508,8.928 c 0.075,0.446 -0.254,0.83 -0.636,0.894 v 0 l -2.807,0.474 c -0.043,0.007 -0.086,0.01 -0.127,0.01 v 0 c -0.39,10e-4 -0.708,-0.3 -0.767,-0.647"/></clipPath><linearGradient id="linearGradient748" x1="0" x2="1" y1="0" y2="0" gradientTransform="matrix(1.7720747,10.493938,-10.493938,1.7720747,526.91656,21.778543)" gradientUnits="userSpaceOnUse" spreadMethod="pad"><stop style="stop-opacity:1;stop-color:#818181" id="stop734" offset="0"/><stop style="stop-opacity:1;stop-color:#7e7e7e" id="stop736" offset=".216"/><stop style="stop-opacity:1;stop-color:#747474" id="stop738" offset=".378"/><stop style="stop-opacity:1;stop-color:#646464" id="stop740" offset=".522"/><stop style="stop-opacity:1;stop-color:#4e4e4e" id="stop742" offset=".654"/><stop style="stop-opacity:1;stop-color:#8a8a8b" id="stop744" offset=".872"/><stop style="stop-opacity:1;stop-color:#8a8a8b" id="stop746" offset="1"/></linearGradient><clipPath id="clipPath758" clipPathUnits="userSpaceOnUse"><path id="path756" d="M 0,300 H 600 V 0 H 0 Z"/></clipPath><clipPath id="clipPath810" clipPathUnits="userSpaceOnUse"><path id="path808" d="M 110.59,128.412 C 83.213,115.884 55.837,103.356 28.461,116.897 v 0 C 32.696,82.669 36.932,49.066 41.169,15.989 v 0 c 23.14,-5.154 46.28,5.435 69.42,16.024 v 0 c 27.377,12.528 54.754,25.056 82.131,11.516 v 0 c -4.236,34.227 -8.472,67.832 -12.707,100.907 v 0 c -4.163,0.928 -8.325,1.345 -12.488,1.345 v 0 c -18.979,0 -37.957,-8.684 -56.935,-17.369"/></clipPath><linearGradient id="linearGradient830" x1="0" x2="1" y1="0" y2="0" gradientTransform="matrix(153.5775,21.074097,21.074097,-153.5775,33.801464,69.676018)" gradientUnits="userSpaceOnUse" spreadMethod="pad"><stop style="stop-opacity:1;stop-color:#ed1c24" id="stop816" offset="0"/><stop style="stop-opacity:1;stop-color:#b91219" id="stop818" offset=".261"/><stop style="stop-opacity:1;stop-color:#b91219" id="stop820" offset=".286"/><stop style="stop-opacity:1;stop-color:#e53f2e" id="stop822" offset=".707"/><stop style="stop-opacity:1;stop-color:#e53f2e" id="stop824" offset=".714"/><stop style="stop-opacity:1;stop-color:#ed1c24" id="stop826" offset=".787"/><stop style="stop-opacity:1;stop-color:#ed1c24" id="stop828" offset="1"/></linearGradient><clipPath id="clipPath840" clipPathUnits="userSpaceOnUse"><path id="path838" d="M 0,300 H 600 V 0 H 0 Z"/></clipPath><clipPath id="clipPath920" clipPathUnits="userSpaceOnUse"><path id="path918" d="m 13.135,123.45 c 0,-3.256 2.583,-5.896 5.769,-5.896 v 0 c 3.187,0 5.771,2.64 5.771,5.896 v 0 c 0,3.256 -2.584,5.895 -5.771,5.895 v 0 c -3.186,0 -5.769,-2.639 -5.769,-5.895"/></clipPath><radialGradient id="radialGradient940" cx="0" cy="0" r="1" fx="0" fy="0" gradientTransform="matrix(6.9452863,10.733286,10.966036,-7.0958939,19.663757,125.65866)" gradientUnits="userSpaceOnUse" spreadMethod="pad"><stop style="stop-opacity:1;stop-color:#c6c8ca" id="stop926" offset="0"/><stop style="stop-opacity:1;stop-color:#c6c8ca" id="stop928" offset=".05"/><stop style="stop-opacity:1;stop-color:#58595b" id="stop930" offset=".255"/><stop style="stop-opacity:1;stop-color:#58595b" id="stop932" offset=".322"/><stop style="stop-opacity:1;stop-color:#58595b" id="stop934" offset=".511"/><stop style="stop-opacity:1;stop-color:#bcbec0" id="stop936" offset=".852"/><stop style="stop-opacity:1;stop-color:#bcbec0" id="stop938" offset="1"/></radialGradient><clipPath id="clipPath950" clipPathUnits="userSpaceOnUse"><path id="path948" d="m 23.062,116.709 c -2.051,-1.199 -4.104,-1.294 -6.157,-0.746 v 0 c -0.887,0.236 -1.729,-0.498 -1.61,-1.427 v 0 L 29.94,0 h 9.852 L 24.988,115.761 c -0.087,0.686 -0.656,1.129 -1.269,1.129 v 0 c -0.22,0 -0.446,-0.057 -0.657,-0.181"/></clipPath><linearGradient id="linearGradient964" x1="0" x2="1" y1="0" y2="0" gradientTransform="matrix(14.449232,1.9592178,1.9592178,-14.449232,20.794783,54.304779)" gradientUnits="userSpaceOnUse" spreadMethod="pad"><stop style="stop-opacity:1;stop-color:#231f20" id="stop956" offset="0"/><stop style="stop-opacity:1;stop-color:#58595b" id="stop958" offset=".334"/><stop style="stop-opacity:1;stop-color:#c6c8ca" id="stop960" offset=".636"/><stop style="stop-opacity:1;stop-color:#58595b" id="stop962" offset="1"/></linearGradient><clipPath id="clipPath974" clipPathUnits="userSpaceOnUse"><path id="path972" d="M 0,300 H 600 V 0 H 0 Z"/></clipPath></defs><g id="g10" transform="matrix(1.3333333,0,0,-1.3333333,0,400)"><g id="g5030" transform="rotate(9.2,510.91527,136.83637)"><g id="g12" transform="translate(461.1621,138.875)"><path id="path14" d="m 0,0 -1.641,-1.166 16.858,12.042 1.576,1.177 z" style="fill:#808285;fill-opacity:1;fill-rule:nonzero;stroke:none"/></g><g id="g16" transform="translate(538.0273,31.6426)"><path id="path18" d="m 0,0 -1.576,-1.177 -77.227,13.041 1.64,1.166 z" style="fill:#58595b;fill-opacity:1;fill-rule:nonzero;stroke:none"/></g><g id="g20" transform="translate(448.7051,61.6152)"><path id="path22" d="m 0,0 -1.64,-1.166 12.456,77.26 1.641,1.166 z" style="fill:#58595b;fill-opacity:1;fill-rule:nonzero;stroke:none"/></g><g id="g24" transform="translate(460.8643,44.6729)"><path id="path26" d="m 0,0 -1.64,-1.166 -12.159,16.942 1.64,1.166 z" style="fill:#58595b;fill-opacity:1;fill-rule:nonzero;stroke:none"/></g><g id="g28" transform="translate(555.1807,137.8867)"><path id="path30" d="m 0,0 12.159,-16.942 -12.456,-77.259 -16.856,-12.043 -77.163,13.03 -12.16,16.943 12.457,77.259 16.793,12.053 z" style="fill:#808285;fill-opacity:1;fill-rule:nonzero;stroke:none"/></g><g id="g32"><g id="g34" clip-path="url(#clipPath38)"><g id="g40"><g id="g42"><path id="path60" d="m 448.752,132.969 -0.474,-2.807 c -0.076,-0.446 0.253,-0.829 0.636,-0.894 v 0 l 8.928,-1.508 c 0.446,-0.075 0.83,0.253 0.894,0.637 v 0 l 0.474,2.805 c 0.075,0.446 -0.253,0.83 -0.636,0.895 v 0 l -8.928,1.507 c -0.043,0.007 -0.086,0.011 -0.128,0.011 v 0 c -0.39,0 -0.708,-0.302 -0.766,-0.646" style="fill:url(#linearGradient58);stroke:none"/></g></g></g></g><g id="g62"><g id="g64" clip-path="url(#clipPath68)"><g id="g70"><g id="g72"><path id="path90" d="m 446.706,120.852 -0.474,-2.806 c -0.076,-0.447 0.254,-0.83 0.636,-0.895 v 0 l 8.928,-1.507 c 0.446,-0.076 0.83,0.254 0.895,0.636 v 0 l 0.473,2.806 c 0.076,0.447 -0.253,0.83 -0.635,0.895 v 0 l -8.928,1.507 c -0.044,0.008 -0.087,0.011 -0.129,0.011 v 0 c -0.39,0 -0.708,-0.302 -0.766,-0.647" style="fill:url(#linearGradient88);stroke:none"/></g></g></g></g><g id="g92"><g id="g94" clip-path="url(#clipPath98)"><g id="g100"><g id="g102"><path id="path120" d="m 444.659,108.735 -0.474,-2.805 c -0.064,-0.383 0.255,-0.831 0.637,-0.895 v 0 l 8.928,-1.508 c 0.447,-0.075 0.83,0.254 0.895,0.636 v 0 l 0.473,2.806 c 0.075,0.447 -0.253,0.829 -0.636,0.895 v 0 l -8.928,1.507 c -0.044,0.007 -0.087,0.011 -0.13,0.011 v 0 c -0.389,0 -0.706,-0.302 -0.765,-0.647" style="fill:url(#linearGradient118);stroke:none"/></g></g></g></g><g id="g122"><g id="g124" clip-path="url(#clipPath128)"><g id="g130"><g id="g132"><path id="path150" d="m 442.614,96.62 -0.475,-2.807 c -0.063,-0.382 0.254,-0.829 0.637,-0.894 v 0 l 8.928,-1.508 c 0.446,-0.075 0.83,0.253 0.894,0.636 v 0 l 0.475,2.806 c 0.074,0.447 -0.255,0.83 -0.638,0.894 v 0 l -8.928,1.508 c -0.043,0.007 -0.086,0.011 -0.128,0.011 v 0 c -0.389,0 -0.708,-0.301 -0.765,-0.646" style="fill:url(#linearGradient148);stroke:none"/></g></g></g></g><g id="g152"><g id="g154" clip-path="url(#clipPath158)"><g id="g160"><g id="g162"><path id="path180" d="m 440.567,84.503 -0.473,-2.806 c -0.065,-0.383 0.253,-0.83 0.635,-0.895 v 0 l 8.928,-1.508 c 0.447,-0.075 0.83,0.253 0.895,0.637 v 0 l 0.474,2.805 c 0.076,0.446 -0.254,0.831 -0.636,0.895 v 0 l -8.928,1.508 c -0.043,0.007 -0.086,0.011 -0.128,0.011 v 0 c -0.39,0 -0.708,-0.302 -0.767,-0.647" style="fill:url(#linearGradient178);stroke:none"/></g></g></g></g><g id="g182"><g id="g184" clip-path="url(#clipPath188)"><g id="g190"><g id="g192"><path id="path210" d="m 438.521,72.386 -0.473,-2.806 c -0.065,-0.383 0.253,-0.83 0.635,-0.895 v 0 l 8.928,-1.507 c 0.447,-0.076 0.83,0.254 0.895,0.636 v 0 l 0.473,2.806 c 0.077,0.447 -0.252,0.83 -0.635,0.895 v 0 l -8.928,1.507 c -0.044,0.008 -0.086,0.011 -0.128,0.011 v 0 c -0.39,0 -0.708,-0.302 -0.767,-0.647" style="fill:url(#linearGradient208);stroke:none"/></g></g></g></g><g id="g212"><g id="g214" clip-path="url(#clipPath218)"><g id="g220"><g id="g222"><path id="path240" d="m 545.774,148.985 -1.507,-8.927 c -0.076,-0.446 0.253,-0.831 0.635,-0.895 v 0 l 2.806,-0.474 c 0.446,-0.075 0.83,0.255 0.894,0.636 v 0 l 1.509,8.929 c 0.074,0.446 -0.253,0.829 -0.637,0.894 v 0 l -2.805,0.473 c -0.044,0.008 -0.087,0.011 -0.129,0.011 v 0 c -0.39,0 -0.707,-0.301 -0.766,-0.647" style="fill:url(#linearGradient238);stroke:none"/></g></g></g></g><g id="g242"><g id="g244" clip-path="url(#clipPath248)"><g id="g250"><g id="g252"><path id="path270" d="m 533.657,151.032 -1.507,-8.928 c -0.075,-0.447 0.253,-0.829 0.636,-0.895 v 0 l 2.806,-0.473 c 0.446,-0.076 0.83,0.254 0.894,0.636 v 0 l 1.508,8.927 c 0.075,0.447 -0.254,0.831 -0.636,0.895 v 0 l -2.807,0.474 c -0.043,0.007 -0.086,0.011 -0.128,0.011 v 0 c -0.389,0 -0.708,-0.302 -0.766,-0.647" style="fill:url(#linearGradient268);stroke:none"/></g></g></g></g><g id="g272"><g id="g274" clip-path="url(#clipPath278)"><g id="g280"><g id="g282"><path id="path300" d="m 521.541,153.077 -1.507,-8.927 c -0.076,-0.447 0.253,-0.83 0.636,-0.894 v 0 l 2.806,-0.475 c 0.446,-0.075 0.83,0.254 0.894,0.637 v 0 l 1.508,8.928 c 0.075,0.446 -0.254,0.829 -0.637,0.894 v 0 l -2.805,0.474 c -0.034,0.005 -0.068,0.008 -0.103,0.008 v 0 c -0.356,0 -0.733,-0.295 -0.792,-0.645" style="fill:url(#linearGradient298);stroke:none"/></g></g></g></g><g id="g302"><g id="g304" clip-path="url(#clipPath308)"><g id="g310"><g id="g312"><path id="path330" d="m 509.425,155.124 -1.508,-8.928 c -0.075,-0.446 0.253,-0.83 0.636,-0.895 v 0 l 2.806,-0.473 c 0.447,-0.077 0.829,0.253 0.894,0.636 v 0 l 1.507,8.927 c 0.076,0.447 -0.252,0.831 -0.635,0.895 v 0 l -2.806,0.473 c -0.034,0.006 -0.069,0.009 -0.103,0.009 v 0 c -0.356,0 -0.733,-0.295 -0.791,-0.644" style="fill:url(#linearGradient328);stroke:none"/></g></g></g></g><g id="g332"><g id="g334" clip-path="url(#clipPath338)"><g id="g340"><g id="g342"><path id="path360" d="m 497.309,157.17 -1.508,-8.927 c -0.076,-0.447 0.253,-0.831 0.635,-0.895 v 0 l 2.807,-0.474 c 0.445,-0.075 0.829,0.253 0.893,0.636 v 0 l 1.509,8.927 c 0.074,0.447 -0.253,0.831 -0.637,0.895 v 0 l -2.806,0.474 c -0.033,0.006 -0.067,0.008 -0.102,0.008 v 0 c -0.355,0 -0.732,-0.295 -0.791,-0.644" style="fill:url(#linearGradient358);stroke:none"/></g></g></g></g><g id="g362"><g id="g364" clip-path="url(#clipPath368)"><g id="g370"><g id="g372"><path id="path390" d="m 485.192,159.215 -1.509,-8.927 c -0.074,-0.446 0.254,-0.83 0.638,-0.894 v 0 l 2.805,-0.474 c 0.446,-0.075 0.83,0.253 0.895,0.636 v 0 l 1.507,8.928 c 0.076,0.446 -0.254,0.829 -0.635,0.894 v 0 l -2.807,0.474 c -0.034,0.005 -0.068,0.008 -0.103,0.008 v 0 c -0.356,0 -0.733,-0.295 -0.791,-0.645" style="fill:url(#linearGradient388);stroke:none"/></g></g></g></g><g id="g392"><g id="g394" clip-path="url(#clipPath398)"><g id="g400"><g id="g402"><path id="path420" d="m 555.669,52.997 -0.473,-2.806 c -0.076,-0.446 0.253,-0.83 0.635,-0.894 v 0 l 8.929,-1.508 c 0.446,-0.075 0.829,0.254 0.894,0.636 v 0 l 0.474,2.807 c 0.075,0.446 -0.254,0.829 -0.636,0.894 v 0 l -8.928,1.508 c -0.044,0.007 -0.087,0.011 -0.129,0.011 v 0 c -0.389,0 -0.707,-0.302 -0.766,-0.648" style="fill:url(#linearGradient418);stroke:none"/></g></g></g></g><g id="g422"><g id="g424" clip-path="url(#clipPath428)"><g id="g430"><g id="g432"><path id="path450" d="m 557.716,65.113 -0.475,-2.805 c -0.075,-0.447 0.254,-0.831 0.637,-0.895 v 0 l 8.928,-1.508 c 0.446,-0.075 0.829,0.255 0.894,0.637 v 0 l 0.474,2.805 c 0.075,0.447 -0.254,0.831 -0.636,0.895 v 0 l -8.929,1.508 c -0.043,0.008 -0.085,0.011 -0.127,0.011 v 0 c -0.39,0 -0.708,-0.302 -0.766,-0.648" style="fill:url(#linearGradient448);stroke:none"/></g></g></g></g><g id="g452"><g id="g454" clip-path="url(#clipPath458)"><g id="g460"><g id="g462"><path id="path480" d="m 559.761,77.231 -0.473,-2.807 c -0.076,-0.447 0.253,-0.829 0.636,-0.894 v 0 l 8.927,-1.507 c 0.447,-0.076 0.831,0.252 0.895,0.635 v 0 l 0.473,2.806 c 0.065,0.383 -0.253,0.83 -0.635,0.895 v 0 l -8.928,1.507 c -0.044,0.008 -0.087,0.011 -0.129,0.011 v 0 c -0.389,0 -0.707,-0.301 -0.766,-0.646" style="fill:url(#linearGradient478);stroke:none"/></g></g></g></g><g id="g482"><g id="g484" clip-path="url(#clipPath488)"><g id="g490"><g id="g492"><path id="path510" d="m 561.808,89.347 -0.474,-2.806 c -0.076,-0.446 0.252,-0.83 0.636,-0.894 v 0 l 8.927,-1.509 c 0.446,-0.074 0.831,0.253 0.895,0.637 v 0 l 0.474,2.806 c 0.064,0.382 -0.253,0.83 -0.636,0.894 v 0 l -8.928,1.507 c -0.043,0.007 -0.086,0.011 -0.128,0.011 v 0 c -0.39,0 -0.708,-0.301 -0.766,-0.646" style="fill:url(#linearGradient508);stroke:none"/></g></g></g></g><g id="g512"><g id="g514" clip-path="url(#clipPath518)"><g id="g520"><g id="g522"><path id="path540" d="m 563.854,101.463 -0.474,-2.806 c -0.075,-0.446 0.253,-0.83 0.636,-0.895 v 0 l 8.928,-1.507 c 0.446,-0.076 0.829,0.254 0.894,0.636 v 0 l 0.474,2.807 c 0.065,0.382 -0.253,0.829 -0.636,0.894 v 0 l -8.928,1.508 c -0.043,0.007 -0.086,0.01 -0.128,0.01 v 0 c -0.39,0.001 -0.708,-0.301 -0.766,-0.647" style="fill:url(#linearGradient538);stroke:none"/></g></g></g></g><g id="g542"><g id="g544" clip-path="url(#clipPath548)"><g id="g550"><g id="g552"><path id="path570" d="m 565.899,113.579 -0.473,-2.805 c -0.076,-0.447 0.254,-0.831 0.635,-0.895 v 0 l 8.929,-1.508 c 0.447,-0.075 0.829,0.254 0.894,0.637 v 0 l 0.474,2.805 c 0.065,0.384 -0.254,0.831 -0.636,0.895 v 0 l -8.928,1.507 c -0.044,0.008 -0.087,0.011 -0.129,0.011 v 0 c -0.389,0 -0.707,-0.302 -0.766,-0.647" style="fill:url(#linearGradient568);stroke:none"/></g></g></g></g><g id="g572"><g id="g574" clip-path="url(#clipPath578)"><g id="g580"><g id="g582"><path id="path600" d="m 465.803,42.069 -1.508,-8.928 c -0.075,-0.447 0.253,-0.83 0.637,-0.895 v 0 l 2.805,-0.474 c 0.447,-0.076 0.83,0.254 0.895,0.636 v 0 l 1.507,8.928 c 0.076,0.447 -0.254,0.83 -0.636,0.895 v 0 l -2.805,0.473 c -0.044,0.007 -0.087,0.011 -0.129,0.011 v 0 c -0.39,0 -0.708,-0.301 -0.766,-0.646" style="fill:url(#linearGradient598);stroke:none"/></g></g></g></g><g id="g602"><g id="g604" clip-path="url(#clipPath608)"><g id="g610"><g id="g612"><path id="path630" d="m 477.919,40.022 -1.507,-8.928 c -0.076,-0.446 0.253,-0.83 0.636,-0.894 v 0 l 2.806,-0.475 c 0.445,-0.075 0.83,0.255 0.894,0.637 v 0 l 1.508,8.928 c 0.075,0.446 -0.254,0.83 -0.636,0.895 v 0 l -2.806,0.473 c -0.044,0.008 -0.086,0.011 -0.128,0.011 v 0 c -0.39,0 -0.708,-0.301 -0.767,-0.647" style="fill:url(#linearGradient628);stroke:none"/></g></g></g></g><g id="g632"><g id="g634" clip-path="url(#clipPath638)"><g id="g640"><g id="g642"><path id="path660" d="m 490.036,37.975 -1.508,-8.927 c -0.075,-0.446 0.253,-0.829 0.636,-0.895 v 0 l 2.806,-0.473 c 0.382,-0.064 0.829,0.253 0.894,0.636 v 0 l 1.508,8.928 c 0.075,0.446 -0.253,0.83 -0.636,0.894 v 0 l -2.805,0.475 c -0.043,0.007 -0.086,0.01 -0.127,0.01 v 0 c -0.391,0 -0.71,-0.302 -0.768,-0.648" style="fill:url(#linearGradient658);stroke:none"/></g></g></g></g><g id="g662"><g id="g664" clip-path="url(#clipPath668)"><g id="g670"><g id="g672"><path id="path690" d="m 502.152,35.93 -1.507,-8.928 c -0.076,-0.447 0.254,-0.83 0.635,-0.895 v 0 l 2.807,-0.473 c 0.382,-0.065 0.829,0.253 0.894,0.635 v 0 l 1.507,8.928 c 0.076,0.448 -0.252,0.83 -0.636,0.895 v 0 l -2.805,0.474 c -0.044,0.007 -0.087,0.011 -0.129,0.011 v 0 c -0.389,0 -0.707,-0.302 -0.766,-0.647" style="fill:url(#linearGradient688);stroke:none"/></g></g></g></g><g id="g692"><g id="g694" clip-path="url(#clipPath698)"><g id="g700"><g id="g702"><path id="path720" d="m 514.268,33.884 -1.507,-8.928 c -0.075,-0.446 0.253,-0.83 0.637,-0.894 v 0 l 2.805,-0.474 c 0.383,-0.065 0.83,0.253 0.895,0.635 v 0 l 1.507,8.929 c 0.076,0.446 -0.254,0.829 -0.636,0.894 v 0 l -2.806,0.474 c -0.044,0.007 -0.087,0.011 -0.13,0.011 v 0 c -0.388,0 -0.707,-0.302 -0.765,-0.647" style="fill:url(#linearGradient718);stroke:none"/></g></g></g></g><g id="g722"><g id="g724" clip-path="url(#clipPath728)"><g id="g730"><g id="g732"><path id="path750" d="m 526.385,31.837 -1.507,-8.927 c -0.076,-0.446 0.253,-0.83 0.636,-0.894 v 0 l 2.805,-0.474 c 0.383,-0.065 0.831,0.253 0.895,0.636 v 0 l 1.508,8.928 c 0.075,0.446 -0.254,0.83 -0.636,0.894 v 0 l -2.807,0.474 c -0.043,0.007 -0.086,0.01 -0.127,0.01 v 0 c -0.39,10e-4 -0.708,-0.3 -0.767,-0.647" style="fill:url(#linearGradient748);stroke:none"/></g></g></g></g><g id="g752"><g id="g754" clip-path="url(#clipPath758)"><g id="g760" transform="translate(481.4219,100.7627)"><path id="path762" d="m 0,0 -0.861,-5.298 c -0.153,-0.948 0.489,-1.843 1.436,-2.003 l 49.977,-8.438 c 0.511,-0.087 0.855,-0.572 0.768,-1.082 l -0.401,-2.381" style="fill:none;stroke:#231f20;stroke-width:1.5;stroke-linecap:butt;stroke-linejoin:miter;stroke-miterlimit:10;stroke-dasharray:none;stroke-opacity:1"/></g><g id="g764" transform="translate(482.0537,104.1436)"><path id="path766" d="m 0,0 2.925,-0.494 c 0,0 -0.74,-3.7 -2.724,-3.61 0,0 -0.171,-0.718 -0.992,-0.58 l -0.059,0.01 C -1.672,-4.535 -1.597,-3.8 -1.597,-3.8 -3.5,-3.234 -2.984,0.503 -2.984,0.503 L -0.059,0.01 Z" style="fill:#231f20;fill-opacity:1;fill-rule:nonzero;stroke:none"/></g><g id="g768" transform="translate(486.4619,103.3984)"><path id="path770" d="m 0,0 -8.841,1.493 0.334,12.098 7.024,3.978 4.56,-6.158 z" style="fill:#fff;fill-opacity:1;fill-rule:nonzero;stroke:none"/></g><g id="g772" transform="translate(489.3604,124.7793)"><path id="path774" d="m 0,0 -3.711,0.627 -0.034,0.006 -3.712,0.627 -13.623,-26.449 6.458,-1.091 2.883,6.392 1.448,-0.245 c 0,0 0.879,3.05 0.199,4.92 -0.609,1.674 -1.087,2.987 -0.413,5.079 1.42,4.41 5.542,3.453 5.542,3.453 0,0 4.208,-0.45 4.101,-5.081 -0.051,-2.197 -0.934,-3.281 -2.058,-4.662 -1.257,-1.543 -1.428,-4.712 -1.428,-4.712 l 1.45,-0.245 0.623,-6.984 6.458,-1.09 z" style="fill:#ed1c24;fill-opacity:1;fill-rule:nonzero;stroke:none"/></g><g id="g776" transform="translate(514.2939,99.8369)"><path id="path778" d="m 0,0 2.896,-4.759 c 0,0 -3.132,-3.883 -10.507,-2.637 -7.376,1.246 -11.094,10.413 -9.903,17.47 1.193,7.058 7.727,12.714 14.826,11.516 5.909,-0.998 8.467,-5.06 8.467,-5.06 L 1.724,13.159 c 0,0 -1.693,2.965 -4.838,3.379 -3.829,0.504 -6.931,-2.696 -7.743,-8.347 -0.812,-5.651 1.44,-9.589 4.346,-10.08 C -3.604,-2.38 -2.762,-2.024 0,0" style="fill:#231f20;fill-opacity:1;fill-rule:nonzero;stroke:none"/></g><g id="g780" transform="translate(520.9902,90.6885)"><path id="path782" d="M 0,0 4.72,27.953 11.444,26.817 14.283,8.239 23.829,24.726 30.61,23.581 25.89,-4.371 20.216,-3.413 23.355,15.176 15.121,0.127 11.454,0.747 8.329,17.642 5.202,-0.878 Z" style="fill:#231f20;fill-opacity:1;fill-rule:nonzero;stroke:none"/></g><g id="g784" transform="translate(502.2012,65.9043)"><path id="path786" d="M 0,0 C 0,0 0.914,5.414 1.047,6.199 4.286,5.652 8.879,4.929 8.398,2.081 7.824,-1.321 4.936,-0.833 0,0 M 2.607,15.438 C 5.57,14.938 9.772,14.274 9.35,11.774 8.846,8.788 6.203,9.234 1.688,9.997 c 0,0 0.802,4.752 0.919,5.441 m 9.077,-8.664 c 0,0 3.195,0.304 3.887,4.405 0.693,4.1 -2.292,5.908 -5.58,6.464 -3.288,0.554 -12.824,2.165 -12.824,2.165 L -6.761,-3.454 c 0,0 5.301,-0.896 12.302,-2.077 7.001,-1.183 8.709,3.437 9.301,6.941 0.592,3.504 -3.158,5.364 -3.158,5.364" style="fill:#231f20;fill-opacity:1;fill-rule:nonzero;stroke:none"/></g><g id="g788" transform="translate(536.9268,79.3701)"><path id="path790" d="m 0,0 -9.937,1.678 -6,-15.287 7.585,-6.941 9.453,5.083 z" style="fill:#fff;fill-opacity:1;fill-rule:nonzero;stroke:none"/></g><g id="g792" transform="translate(528.0098,56.1836)"><path id="path794" d="M 0,0 C -7.567,1.278 -8.918,7.143 -8.043,12.324 -7.168,17.506 -5.79,25.67 -5.79,25.67 L 1.219,24.486 C 1.122,22.777 0.278,19.92 -1.246,18.053 -2.988,15.918 -4.104,13.537 -4.347,11.964 -4.741,9.4 -3.376,6.13 0.911,5.406 L 0.945,5.4 c 4.287,-0.724 6.65,1.917 7.119,4.468 0.289,1.566 0.016,4.181 -0.929,6.77 -0.826,2.263 -0.685,5.24 -0.216,6.885 l 7.009,-1.183 c 0,0 -1.379,-8.164 -2.254,-13.346 C 10.799,3.813 7.598,-1.283 0.03,-0.005 Z" style="fill:#ed1c24;fill-opacity:1;fill-rule:nonzero;stroke:none"/></g><g id="g796" transform="translate(532.0791,80.1885)"><path id="path798" d="m 0,0 -2.925,0.494 c 0,0 0.739,3.699 2.723,3.61 0,0 0.171,0.718 0.993,0.58 L 0.85,4.673 C 1.671,4.534 1.597,3.8 1.597,3.8 3.499,3.233 2.983,-0.504 2.983,-0.504 L 0.059,-0.01 Z" style="fill:#231f20;fill-opacity:1;fill-rule:nonzero;stroke:none"/></g><g id="g800" transform="translate(473.6768,77.002)"><path id="path802" d="m 0,0 c -0.276,-1.633 0.105,-2.632 1.237,-2.822 1.38,-0.234 2.582,0.619 3.63,3.239 C 6.028,3.236 5.643,4.486 4.023,4.76 2.069,5.09 0.415,2.463 0,0 m 7.95,-12.366 c -1.675,-0.649 -4.154,-1.048 -7.922,-0.411 -7.397,1.249 -12.162,7.34 -10.837,15.189 1.44,8.522 8.272,13.326 16.788,11.888 6.74,-1.138 11.968,-5.873 10.68,-13.502 -0.954,-5.652 -4.506,-8.772 -9.252,-7.97 -1.913,0.323 -3.225,1.196 -3.402,2.64 -1.312,-1.131 -2.583,-1.6 -4.61,-1.258 -2.733,0.462 -4.345,2.706 -3.724,6.385 0.802,4.751 4.464,7.979 8.111,7.364 C 5.744,7.627 6.677,6.611 6.844,5.514 L 7.547,6.992 11.579,6.312 8.254,-1.932 C 7.641,-3.464 7.846,-3.996 8.873,-4.17 c 1.866,-0.315 3.755,1.857 4.356,5.415 0.887,5.259 -2.302,9.116 -7.802,10.045 -6.33,1.069 -11.344,-2.273 -12.573,-9.525 -0.917,-5.41 2.056,-10.421 7.89,-11.407 2.716,-0.458 4.846,-0.43 6.963,0.201 z" style="fill:#231f20;fill-opacity:1;fill-rule:nonzero;stroke:none"/></g></g></g></g><g id="g4824"><g id="g804"><g id="g806" clip-path="url(#clipPath810)"><g id="g812"><g id="g814"><path id="path832" d="M 110.59,128.412 C 83.213,115.884 55.837,103.356 28.461,116.897 v 0 C 32.696,82.669 36.932,49.066 41.169,15.989 v 0 c 23.14,-5.154 46.28,5.435 69.42,16.024 v 0 c 27.377,12.528 54.754,25.056 82.131,11.516 v 0 c -4.236,34.227 -8.472,67.832 -12.707,100.907 v 0 c -4.163,0.928 -8.325,1.345 -12.488,1.345 v 0 c -18.979,0 -37.957,-8.684 -56.935,-17.369" style="fill:url(#linearGradient830);stroke:none"/></g></g></g></g><g id="g834"><g id="g836" clip-path="url(#clipPath840)"><g id="g842" transform="translate(61.1187,72.2773)"><path id="path844" d="M 0,0 C -0.314,2.355 1.104,4.048 3.214,4.375 5.324,4.701 7.153,3.528 7.468,1.207 7.784,-1.124 6.366,-3 4.256,-3.359 2.146,-3.72 0.316,-2.367 0,0 m 9.376,1.524 c -1.127,8.289 -3.945,10.15 -7.084,9.705 -3.138,-0.447 -5.3,-3.044 -4.173,-11.516 1.127,-8.46 3.982,-10.94 7.121,-10.361 3.138,0.576 5.263,3.898 4.136,12.172 M -8.41,-0.522 C -9.887,10.785 -5.808,16.091 1.514,17.024 8.836,18.016 14.428,14.049 15.905,3.259 17.378,-7.408 13.34,-14.946 6.018,-16.407 -1.305,-17.833 -6.937,-11.724 -8.41,-0.522" style="fill:#fff;fill-opacity:1;fill-rule:nonzero;stroke:none"/></g><g id="g846" transform="translate(90.6396,77.1211)"><path id="path848" d="m 0,0 c -3.209,2.83 -6.417,5.746 -9.626,8.792 2.624,0.877 5.248,1.84 7.872,2.866 C -0.725,10.678 0.304,9.707 1.333,8.745 2.261,7.687 3.461,6.646 4.464,5.649 l 0.2,0.085 c 0.457,1.617 1.032,3.417 1.473,5.045 0.547,1.613 1.093,3.228 1.64,4.844 2.55,1.114 5.1,2.261 7.651,3.421 C 13.321,13.686 11.214,8.335 9.106,3.005 c 3.41,-2.667 6.82,-5.28 10.229,-7.892 -2.629,-1.202 -5.257,-2.403 -7.886,-3.58 -1.126,0.908 -2.251,1.821 -3.376,2.74 -1.092,0.959 -2.325,2.025 -3.419,3.012 L 4.455,-2.8 C 3.904,-4.499 3.286,-6.262 2.743,-8.019 2.116,-9.687 1.488,-11.352 0.861,-13.013 -1.689,-14.049 -4.24,-15.032 -6.791,-15.941 -4.527,-10.681 -2.264,-5.362 0,0" style="fill:#fff;fill-opacity:1;fill-rule:nonzero;stroke:none"/></g><g id="g850" transform="translate(125.999,85.3428)"><path id="path852" d="M 0,0 C 3.996,1.688 5.705,3.838 5.299,6.765 4.908,9.569 2.881,10.009 -1.157,8.28 -2.461,7.722 -3.765,7.151 -5.069,6.574 -4.684,3.82 -4.298,1.065 -3.913,-1.69 -2.608,-1.118 -1.304,-0.554 0,0 m -2.548,13.179 c 3.565,1.543 4.844,3.617 4.508,6.033 -0.332,2.38 -2.043,2.655 -5.456,1.164 -1.101,-0.481 -2.201,-0.969 -3.301,-1.461 0.334,-2.388 0.668,-4.775 1.003,-7.164 1.082,0.481 2.164,0.957 3.246,1.428 m -12.364,7.999 c 3.638,1.665 7.276,3.327 10.914,4.926 6.745,2.984 12.14,3.1 12.99,-3.039 0.4,-2.892 -0.909,-6.574 -4.585,-9.08 0.01,-0.065 0.018,-0.131 0.028,-0.196 4.753,1.018 7.518,-0.597 8.113,-4.898 C 13.455,2.318 8.45,-2.398 1.382,-5.365 c -3.947,-1.65 -7.895,-3.409 -11.841,-5.202 -1.485,10.585 -2.969,21.166 -4.453,31.745" style="fill:#fff;fill-opacity:1;fill-rule:nonzero;stroke:none"/></g><g id="g854" transform="translate(143.208,98.8135)"><path id="path856" d="m 0,0 c -0.913,6.645 -1.826,13.276 -2.738,19.898 2.452,0.814 4.905,1.55 7.358,2.193 0.946,-6.936 1.894,-13.885 2.84,-20.85 0.534,-3.928 2.253,-5.706 5.311,-5.187 3.071,0.498 4.295,2.786 3.763,6.781 -0.948,7.072 -1.894,14.127 -2.841,21.164 2.362,0.365 4.724,0.622 7.087,0.752 0.912,-6.874 1.825,-13.767 2.738,-20.68 1.156,-8.855 -1.994,-13.342 -9.877,-14.48 C 5.745,-11.703 1.157,-8.472 0,0" style="fill:#fff;fill-opacity:1;fill-rule:nonzero;stroke:none"/></g><g id="g858" transform="translate(62.0029,36.5869)"><path id="path860" d="m 0,0 c -1.775,-0.22 -3.01,0.624 -3.288,2.71 -0.38,2.852 -0.76,5.707 -1.139,8.564 -0.274,2.06 0.7,3.146 2.44,3.311 1.578,0.152 2.802,-0.254 3.142,-2.783 C 1.249,11.105 1.27,10.399 1.27,9.857 0.66,9.821 0.049,9.792 -0.562,9.771 c 0.006,0.504 -0.009,1.026 -0.075,1.522 -0.177,1.323 -0.507,1.473 -0.938,1.429 -0.43,-0.044 -0.603,-0.246 -0.507,-0.965 C -1.68,8.746 -1.278,5.738 -0.876,2.734 -0.79,2.091 -0.589,1.813 -0.051,1.88 0.344,1.929 0.576,2.24 0.396,3.579 0.337,4.02 0.212,4.545 0.069,5.067 0.672,5.193 1.275,5.326 1.878,5.467 2.019,4.965 2.172,4.372 2.283,3.549 2.63,0.975 1.561,0.195 0,0" style="fill:#fff;fill-opacity:1;fill-rule:nonzero;stroke:none"/></g><g id="g862" transform="translate(69.3188,42.0654)"><path id="path864" d="M 0,0 C -0.395,1.818 -0.789,3.639 -1.184,5.463 -1.118,3.572 -1.052,1.682 -0.987,-0.209 -0.658,-0.142 -0.329,-0.071 0,0 M 3.342,-3.206 C 2.541,-3.41 1.74,-3.604 0.939,-3.786 0.792,-3.154 0.644,-2.521 0.497,-1.889 0.024,-1.994 -0.448,-2.096 -0.92,-2.192 l 0.083,-1.981 C -1.5,-4.311 -2.164,-4.44 -2.828,-4.562 -2.866,0.21 -2.904,4.982 -2.942,9.754 c 0.855,0.155 1.71,0.324 2.565,0.507 1.24,-4.516 2.48,-9.004 3.719,-13.467" style="fill:#fff;fill-opacity:1;fill-rule:nonzero;stroke:none"/></g><g id="g866" transform="translate(75.7651,52.0576)"><path id="path868" d="m 0,0 c -0.083,-0.023 -0.167,-0.048 -0.25,-0.071 0.23,-1.684 0.46,-3.367 0.691,-5.048 0.09,0.026 0.18,0.053 0.269,0.079 0.538,0.158 0.823,0.805 0.54,2.866 C 0.986,-0.255 0.592,0.17 0,0 M 1.24,-6.862 C 1.061,-6.916 0.881,-6.969 0.702,-7.021 c 0.226,-1.645 0.451,-3.29 0.677,-4.933 -0.796,-0.238 -1.59,-0.468 -2.386,-0.688 -0.63,4.605 -1.26,9.216 -1.89,13.833 0.945,0.243 1.889,0.499 2.834,0.77 C 1.981,2.548 3.135,1.786 3.583,-1.471 4.056,-4.9 2.926,-6.358 1.24,-6.862" style="fill:#fff;fill-opacity:1;fill-rule:nonzero;stroke:none"/></g><g id="g870" transform="translate(86.5068,55.6436)"><path id="path872" d="m 0,0 c -0.627,-0.236 -1.255,-0.468 -1.883,-0.695 0.545,-3.935 1.089,-7.867 1.634,-11.794 -0.795,-0.298 -1.59,-0.589 -2.386,-0.872 -0.544,3.937 -1.089,7.878 -1.634,11.822 -0.621,-0.214 -1.243,-0.423 -1.865,-0.627 l -0.261,1.893 C -4.35,0.395 -2.305,1.116 -0.261,1.88 -0.174,1.253 -0.087,0.626 0,0" style="fill:#fff;fill-opacity:1;fill-rule:nonzero;stroke:none"/></g><g id="g874" transform="translate(95.7305,49.7842)"><path id="path876" d="m 0,0 c 0.264,-1.884 -0.787,-3.347 -2.544,-4.077 -1.812,-0.751 -3.057,-0.235 -3.318,1.64 -0.509,3.657 -1.017,7.315 -1.526,10.975 0.789,0.307 1.578,0.618 2.367,0.936 0.52,-3.731 1.039,-7.459 1.558,-11.185 0.071,-0.513 0.378,-0.667 0.79,-0.496 0.376,0.156 0.501,0.488 0.427,1.018 -0.518,3.716 -1.037,7.435 -1.555,11.157 0.759,0.309 1.519,0.624 2.278,0.943 C -1.015,7.272 -0.507,3.635 0,0" style="fill:#fff;fill-opacity:1;fill-rule:nonzero;stroke:none"/></g><g id="g878" transform="translate(99.5776,61.0303)"><path id="path880" d="m 0,0 c -0.107,-0.048 -0.215,-0.095 -0.323,-0.143 0.2,-1.424 0.399,-2.848 0.598,-4.273 0.102,0.045 0.204,0.09 0.306,0.135 0.538,0.238 0.836,0.819 0.583,2.63 C 0.918,0.106 0.521,0.229 0,0 m 2.495,-11.288 c -0.141,0.197 -0.235,0.455 -0.293,0.727 -0.201,1.162 -0.262,1.601 -0.4,2.454 -0.319,2.004 -0.636,2.088 -0.923,1.961 -0.113,-0.05 -0.227,-0.1 -0.34,-0.15 0.257,-1.841 0.515,-3.681 0.773,-5.519 -0.795,-0.354 -1.591,-0.705 -2.386,-1.052 -0.632,4.515 -1.263,9.033 -1.895,13.553 0.992,0.426 1.985,0.859 2.977,1.295 1.919,0.847 3.091,0.238 3.438,-2.239 0.263,-1.879 0.243,-2.954 -0.878,-4.071 1.132,-0.185 1.461,-1.715 1.581,-2.576 0.048,-0.339 0.096,-0.679 0.143,-1.018 0.177,-1.265 0.318,-1.723 0.57,-2.3 -0.789,-0.357 -1.578,-0.712 -2.367,-1.065" style="fill:#fff;fill-opacity:1;fill-rule:nonzero;stroke:none"/></g><g id="g882" transform="translate(111.4824,54.0566)"><path id="path884" d="m 0,0 c -1.614,-0.738 -3.228,-1.479 -4.842,-2.213 -0.631,4.492 -1.261,8.984 -1.89,13.479 1.607,0.727 3.216,1.463 4.824,2.198 0.087,-0.62 0.174,-1.239 0.261,-1.86 C -2.46,11.232 -3.273,10.86 -4.086,10.49 -3.912,9.244 -3.737,7.998 -3.562,6.752 -2.886,7.061 -2.211,7.369 -1.535,7.679 -1.447,7.047 -1.358,6.416 -1.27,5.784 -1.945,5.476 -2.621,5.166 -3.296,4.857 -3.104,3.483 -2.911,2.109 -2.718,0.735 -1.899,1.109 -1.08,1.484 -0.261,1.859 -0.174,1.239 -0.087,0.619 0,0" style="fill:#fff;fill-opacity:1;fill-rule:nonzero;stroke:none"/></g><g id="g886" transform="translate(121.1138,70.7676)"><path id="path888" d="m 0,0 c -0.627,-0.277 -1.255,-0.557 -1.883,-0.837 0.545,-3.889 1.09,-7.778 1.634,-11.669 -0.795,-0.352 -1.59,-0.707 -2.385,-1.063 -0.545,3.886 -1.09,7.773 -1.635,11.659 -0.621,-0.281 -1.243,-0.564 -1.864,-0.846 -0.088,0.62 -0.175,1.24 -0.262,1.86 2.045,0.93 4.09,1.854 6.134,2.759 z" style="fill:#fff;fill-opacity:1;fill-rule:nonzero;stroke:none"/></g><g id="g890" transform="translate(131.0142,62.5566)"><path id="path892" d="M 0,0 C -0.789,-0.315 -1.578,-0.635 -2.367,-0.96 -2.646,1.041 -2.925,3.041 -3.204,5.041 -3.658,4.852 -4.113,4.661 -4.567,4.47 c 0.277,-1.987 0.554,-3.973 0.831,-5.96 -0.789,-0.33 -1.577,-0.665 -2.367,-1.003 -0.63,4.509 -1.26,9.015 -1.89,13.519 0.789,0.345 1.578,0.685 2.368,1.022 0.264,-1.891 0.528,-3.782 0.792,-5.674 0.454,0.192 0.909,0.383 1.363,0.572 -0.264,1.894 -0.528,3.787 -0.792,5.68 0.789,0.332 1.578,0.659 2.367,0.982 C -1.263,9.075 -0.632,4.539 0,0" style="fill:#fff;fill-opacity:1;fill-rule:nonzero;stroke:none"/></g><g id="g894" transform="translate(138.3242,65.3359)"><path id="path896" d="m 0,0 c -1.614,-0.563 -3.228,-1.157 -4.842,-1.776 -0.63,4.537 -1.26,9.07 -1.89,13.6 1.608,0.636 3.216,1.248 4.824,1.833 0.087,-0.628 0.174,-1.256 0.262,-1.884 -0.813,-0.294 -1.626,-0.595 -2.439,-0.903 0.174,-1.26 0.349,-2.519 0.523,-3.779 0.676,0.253 1.352,0.502 2.027,0.746 0.089,-0.641 0.178,-1.28 0.266,-1.921 C -1.944,5.674 -2.62,5.427 -3.295,5.175 -3.103,3.784 -2.91,2.394 -2.717,1.002 -1.898,1.305 -1.08,1.6 -0.261,1.887 Z" style="fill:#fff;fill-opacity:1;fill-rule:nonzero;stroke:none"/></g><g id="g898" transform="translate(146.9517,80.3838)"><path id="path900" d="m 0,0 c -0.813,-0.22 -1.625,-0.45 -2.438,-0.69 0.188,-1.376 0.377,-2.752 0.565,-4.129 0.676,0.195 1.352,0.384 2.027,0.566 0.086,-0.63 0.172,-1.26 0.258,-1.89 -0.675,-0.18 -1.351,-0.368 -2.026,-0.561 0.27,-1.97 0.539,-3.942 0.809,-5.913 -0.795,-0.222 -1.59,-0.453 -2.385,-0.694 -0.632,4.601 -1.263,9.196 -1.895,13.786 1.608,0.513 3.216,0.993 4.824,1.432 z" style="fill:#fff;fill-opacity:1;fill-rule:nonzero;stroke:none"/></g><g id="g902" transform="translate(155.6143,69.9199)"><path id="path904" d="m 0,0 c -1.614,-0.277 -3.228,-0.604 -4.842,-0.975 -0.632,4.647 -1.263,9.287 -1.895,13.92 0.796,0.2 1.591,0.388 2.386,0.567 0.542,-3.992 1.084,-7.989 1.626,-11.991 0.819,0.168 1.638,0.324 2.457,0.467 C -0.179,1.325 -0.089,0.662 0,0" style="fill:#fff;fill-opacity:1;fill-rule:nonzero;stroke:none"/></g><g id="g906" transform="translate(160.2827,74.6094)"><path id="path908" d="M 0,0 C -0.395,1.86 -0.789,3.719 -1.184,5.573 -1.118,3.677 -1.052,1.781 -0.986,-0.114 -0.657,-0.074 -0.329,-0.036 0,0 M 3.342,-3.711 C 2.541,-3.76 1.74,-3.823 0.939,-3.899 l -0.442,1.954 c -0.473,-0.049 -0.945,-0.102 -1.417,-0.159 0.027,-0.663 0.055,-1.325 0.083,-1.988 -0.663,-0.08 -1.327,-0.169 -1.991,-0.266 -0.038,4.772 -0.076,9.545 -0.114,14.319 0.855,0.128 1.71,0.24 2.565,0.339 1.24,-4.638 2.48,-9.308 3.719,-14.011" style="fill:#fff;fill-opacity:1;fill-rule:nonzero;stroke:none"/></g><g id="g910" transform="translate(171.2285,70.9043)"><path id="path912" d="m 0,0 c -0.215,0.014 -0.431,0.025 -0.646,0.037 l -0.439,0.636 c -0.424,-0.581 -1.02,-0.797 -2.132,-0.786 -1.614,0.011 -2.78,0.912 -3.033,2.825 -0.384,2.897 -0.768,5.791 -1.151,8.681 -0.281,2.108 0.726,3.252 2.502,3.289 1.632,0.03 2.742,-0.681 3.077,-3.229 0.092,-0.693 0.123,-1.349 0.116,-1.833 -0.61,0.069 -1.221,0.13 -1.831,0.182 -10e-4,0.41 0.004,0.784 -0.079,1.419 -0.18,1.363 -0.494,1.568 -0.888,1.563 -0.538,-0.008 -0.643,-0.311 -0.557,-0.963 0.407,-3.077 0.813,-6.159 1.221,-9.244 0.071,-0.541 0.305,-0.82 0.772,-0.824 0.376,-0.004 0.537,0.271 0.465,0.814 C -2.796,4.039 -2.99,5.511 -3.184,6.98 -2.424,6.974 -1.665,6.953 -0.905,6.919 -0.604,4.615 -0.302,2.309 0,0" style="fill:#fff;fill-opacity:1;fill-rule:nonzero;stroke:none"/></g></g></g><g id="g914"><g id="g916" clip-path="url(#clipPath920)"><g id="g922"><g id="g924"><path id="path942" d="m 13.135,123.45 c 0,-3.256 2.583,-5.896 5.769,-5.896 v 0 c 3.187,0 5.771,2.64 5.771,5.896 v 0 c 0,3.256 -2.584,5.895 -5.771,5.895 v 0 c -3.186,0 -5.769,-2.639 -5.769,-5.895" style="fill:url(#radialGradient940);stroke:none"/></g></g></g></g><g id="g944"><g id="g946" clip-path="url(#clipPath950)"><g id="g952"><g id="g954"><path id="path966" d="m 23.062,116.709 c -2.051,-1.199 -4.104,-1.294 -6.157,-0.746 v 0 c -0.887,0.236 -1.729,-0.498 -1.61,-1.427 v 0 L 29.94,0 h 9.852 L 24.988,115.761 c -0.087,0.686 -0.656,1.129 -1.269,1.129 v 0 c -0.22,0 -0.446,-0.057 -0.657,-0.181" style="fill:url(#linearGradient964);stroke:none"/></g></g></g></g></g><g id="g4874"><g id="g968"><g id="g970" clip-path="url(#clipPath974)"><g id="g976" transform="translate(187.8311,187.1938)"><path id="path978" d="m 0,0 v 16.312 c 8.524,0 20.586,0.133 20.586,-7.361 C 20.586,0 12.987,0 0,0 m 0,40.621 c 7.798,0 18.833,0.117 18.833,-6.461 0,-7.856 -6.952,-7.856 -18.833,-7.856 z M 26.962,22.377 c 0,0 8.043,2.158 8.043,12.948 0,10.789 -8.415,14.124 -17.067,14.124 h -33.742 v -61.206 h 32.368 c 18.42,0 20.795,12.555 20.795,21.776 0,9.22 -10.397,12.358 -10.397,12.358" style="fill:#231f20;fill-opacity:1;fill-rule:nonzero;stroke:none"/></g><g id="g980" transform="translate(258.0547,173.4756)"><path id="path982" d="M 0,0 C -19.912,0 -25.9,14.418 -25.9,28.052 V 63.167 H -7.46 C -6.97,58.753 -7.894,51.079 -10.986,45.646 -14.522,39.431 -16.348,32.858 -16.288,28.728 -16.19,22 -11.286,14.222 -0.006,14.222 h 0.09 c 11.28,0 16.185,7.778 16.283,14.506 0.06,4.13 -1.766,10.703 -5.302,16.918 -3.092,5.433 -4.016,13.107 -3.526,17.521 h 18.44 V 28.052 C 25.979,14.418 19.99,0 0.079,0 Z" style="fill:#ed1c24;fill-opacity:1;fill-rule:nonzero;stroke:none"/></g><g id="g984" transform="translate(258.0942,236.6431)"><path id="path986" d="m 0,0 h -7.696 c 0,0 0.294,9.784 5.407,10.409 0,0 0.127,1.913 2.289,1.913 h 0.154 c 2.161,0 2.289,-1.913 2.289,-1.913 C 7.556,9.784 7.85,0 7.85,0 H 0.154 Z" style="fill:#58595b;fill-opacity:1;fill-rule:nonzero;stroke:none"/></g><path id="path988" d="m 295.42,175.437 h 15.693 v 61.206 H 295.42 Z" style="fill:#231f20;fill-opacity:1;fill-rule:nonzero;stroke:none"/><g id="g990" transform="translate(321.9033,175.437)"><path id="path992" d="M 0,0 V 61.206 H 16.086 V 13.536 H 33.038 V 0 Z" style="fill:#231f20;fill-opacity:1;fill-rule:nonzero;stroke:none"/></g><g id="g994" transform="translate(385.7578,188.7769)"><path id="path996" d="m 0,0 h -7.341 v 34.329 h 6.679 c 7.735,0 14.296,-5.501 14.296,-17.164 C 13.634,5.501 6.983,0 0,0 M -2.452,47.866 H -24.031 V -13.34 H -3.63 c 18.224,0 34.33,9.809 34.33,30.603 0,20.795 -12.968,30.603 -33.152,30.603" style="fill:#231f20;fill-opacity:1;fill-rule:nonzero;stroke:none"/></g><g id="g998" transform="translate(452.4072,221.4888)"><path id="path1000" d="m 0,0 7.062,12.064 c 0,0 -8.386,5.003 -20.451,5.003 -12.064,0 -20.157,-7.357 -20.157,-18.98 0,-11.623 4.562,-16.037 12.801,-18.244 8.239,-2.207 16.331,-4.267 12.8,-10.446 -3.532,-6.18 -11.329,-4.561 -20.745,1.913 l -7.259,-12.801 c 0,0 10.054,-6.768 22.707,-6.768 12.653,0 22.658,8.534 22.658,19.127 0,10.593 -3.531,17.508 -13.83,20.01 -10.299,2.501 -13.241,4.267 -12.653,8.239 C -16.479,3.089 -8.828,7.062 0,0" style="fill:#231f20;fill-opacity:1;fill-rule:nonzero;stroke:none"/></g><g id="g1002" transform="translate(194.0908,149.0767)"><path id="path1004" d="m 0,0 h 4.598 c 3.109,0 4.664,1.254 4.664,3.762 0,1.261 -0.393,2.2 -1.177,2.816 C 7.3,7.194 6.123,7.502 4.554,7.502 H 0 Z m 0,8.338 h 4.29 c 1.335,0 2.354,0.289 3.058,0.869 0.704,0.579 1.056,1.412 1.056,2.497 0,2.229 -1.467,3.344 -4.4,3.344 H 0 Z m -0.858,7.546 h 4.972 c 1.657,0 2.937,-0.356 3.839,-1.067 0.902,-0.712 1.353,-1.72 1.353,-3.025 C 9.306,9.885 8.389,8.617 6.556,7.986 7.714,7.78 8.605,7.312 9.229,6.578 9.852,5.845 10.164,4.906 10.164,3.762 10.164,2.266 9.702,1.125 8.778,0.341 7.854,-0.443 6.504,-0.835 4.73,-0.835 h -5.588 z" style="fill:#231f20;fill-opacity:1;fill-rule:nonzero;stroke:none"/></g><g id="g1006" transform="translate(215.2764,147.8896)"><path id="path1008" d="M 0,0 C -2.142,0 -3.788,0.59 -4.939,1.77 -6.09,2.951 -6.666,4.648 -6.666,6.863 v 10.208 h 0.88 V 7.039 c 0,-4.122 1.929,-6.182 5.786,-6.182 3.857,0 5.786,2.06 5.786,6.182 v 10.032 h 0.88 V 6.863 C 6.666,4.648 6.09,2.951 4.939,1.77 3.788,0.59 2.142,0 0,0" style="fill:#231f20;fill-opacity:1;fill-rule:nonzero;stroke:none"/></g><path id="path1010" d="m 227.443,164.961 h 0.88 v -16.72 h -0.88 z" style="fill:#231f20;fill-opacity:1;fill-rule:nonzero;stroke:none"/><g id="g1012" transform="translate(234.2627,164.9609)"><path id="path1014" d="M 0,0 H 0.88 V -15.906 H 9.086 V -16.72 H 0 Z" style="fill:#231f20;fill-opacity:1;fill-rule:nonzero;stroke:none"/></g><g id="g1016" transform="translate(248.4087,149.0767)"><path id="path1018" d="m 0,0 h 4.29 c 2.64,0 4.638,0.63 5.995,1.892 1.356,1.261 2.035,3.131 2.035,5.61 0,2.478 -0.679,4.356 -2.035,5.632 C 8.928,14.41 6.93,15.048 4.29,15.048 H 0 Z m -0.88,15.884 h 5.17 c 2.889,0 5.104,-0.719 6.644,-2.156 1.54,-1.437 2.31,-3.513 2.31,-6.226 0,-2.713 -0.766,-4.781 -2.299,-6.204 C 9.412,-0.125 7.179,-0.835 4.246,-0.835 H -0.88 Z" style="fill:#231f20;fill-opacity:1;fill-rule:nonzero;stroke:none"/></g><g id="g1020" transform="translate(263.2588,144.2588)"><path id="path1022" d="M 0,0 C 0.469,0.748 0.865,1.577 1.188,2.486 1.51,3.396 1.723,4.298 1.826,5.192 H 2.728 C 2.596,4.239 2.354,3.308 2.002,2.398 1.65,1.489 1.217,0.69 0.704,0 Z" style="fill:#231f20;fill-opacity:1;fill-rule:nonzero;stroke:none"/></g><g id="g1024" transform="translate(276.8325,164.9609)"><path id="path1026" d="M 0,0 H 0.88 V -7.524 H 12.32 V 0 h 0.88 v -16.72 h -0.88 v 8.36 H 0.88 v -8.36 H 0 Z" style="fill:#231f20;fill-opacity:1;fill-rule:nonzero;stroke:none"/></g><g id="g1028" transform="translate(304.9482,154.5767)"><path id="path1030" d="M 0,0 -3.851,9.504 -7.723,0 Z m -4.334,10.384 h 0.989 L 3.563,-6.335 h -0.99 l -2.265,5.543 h -8.361 l -2.243,-5.543 h -0.925 z" style="fill:#231f20;fill-opacity:1;fill-rule:nonzero;stroke:none"/></g><g id="g1032" transform="translate(318.8516,147.999)"><path id="path1034" d="m 0,0 c -1.628,0 -3.084,0.353 -4.367,1.056 -1.284,0.704 -2.296,1.712 -3.036,3.025 -0.742,1.312 -1.112,2.827 -1.112,4.543 0,1.657 0.349,3.131 1.045,4.422 0.697,1.29 1.701,2.306 3.015,3.047 1.312,0.74 2.834,1.111 4.564,1.111 1.76,0 3.367,-0.396 4.819,-1.188 l -0.22,-0.814 c -1.437,0.762 -2.985,1.144 -4.643,1.144 -1.481,0 -2.797,-0.312 -3.949,-0.935 -1.151,-0.624 -2.056,-1.515 -2.717,-2.673 -0.66,-1.159 -0.99,-2.516 -0.99,-4.071 0,-1.481 0.309,-2.812 0.925,-3.992 C -6.051,3.494 -5.163,2.563 -4.005,1.881 -2.846,1.199 -1.511,0.858 0,0.858 c 0.836,0 1.693,0.103 2.573,0.308 0.88,0.206 1.657,0.476 2.332,0.813 L 5.06,1.166 C 4.37,0.8 3.574,0.514 2.673,0.309 1.771,0.103 0.88,0 0,0" style="fill:#231f20;fill-opacity:1;fill-rule:nonzero;stroke:none"/></g><g id="g1036" transform="translate(328.6182,164.9609)"><path id="path1038" d="M 0,0 H 0.88 V -7.766 L 10.538,0 h 1.276 L 1.805,-8.008 12.694,-16.72 H 11.33 L 0.88,-8.36 v -8.36 H 0 Z" style="fill:#231f20;fill-opacity:1;fill-rule:nonzero;stroke:none"/></g><g id="g1040" transform="translate(342.9619,144.2588)"><path id="path1042" d="m 0,0 c 0.47,0.748 0.865,1.577 1.188,2.486 0.323,0.91 0.536,1.812 0.638,2.706 H 2.729 C 2.597,4.239 2.354,3.308 2.002,2.398 1.65,1.489 1.218,0.69 0.704,0 Z" style="fill:#231f20;fill-opacity:1;fill-rule:nonzero;stroke:none"/></g><g id="g1044" transform="translate(363.8408,147.999)"><path id="path1046" d="m 0,0 c -1.628,0 -3.084,0.353 -4.367,1.056 -1.284,0.704 -2.296,1.712 -3.036,3.025 -0.742,1.312 -1.112,2.827 -1.112,4.543 0,1.657 0.349,3.131 1.045,4.422 0.697,1.29 1.701,2.306 3.015,3.047 1.312,0.74 2.834,1.111 4.564,1.111 1.76,0 3.367,-0.396 4.819,-1.188 l -0.22,-0.814 c -1.437,0.762 -2.985,1.144 -4.643,1.144 -1.481,0 -2.797,-0.312 -3.949,-0.935 -1.151,-0.624 -2.056,-1.515 -2.717,-2.673 -0.66,-1.159 -0.99,-2.516 -0.99,-4.071 0,-1.481 0.309,-2.812 0.925,-3.992 C -6.051,3.494 -5.163,2.563 -4.005,1.881 -2.846,1.199 -1.511,0.858 0,0.858 c 0.836,0 1.693,0.103 2.573,0.308 0.88,0.206 1.657,0.476 2.332,0.813 L 5.06,1.166 C 4.37,0.8 3.574,0.514 2.673,0.309 1.771,0.103 0.88,0 0,0" style="fill:#231f20;fill-opacity:1;fill-rule:nonzero;stroke:none"/></g><g id="g1048" transform="translate(374.4873,156.2485)"><path id="path1050" d="M 0,0 H 3.103 C 4.672,0 5.874,0.341 6.71,1.023 7.547,1.705 7.965,2.684 7.965,3.96 7.965,5.207 7.572,6.171 6.787,6.853 6.003,7.535 4.898,7.876 3.477,7.876 H 0 Z M -0.88,8.712 H 3.542 C 5.17,8.712 6.469,8.287 7.437,7.436 8.404,6.585 8.889,5.449 8.889,4.026 8.889,2.896 8.603,1.939 8.03,1.155 7.458,0.371 6.63,-0.19 5.544,-0.528 L 10.45,-8.007 H 9.372 L 4.687,-0.726 C 4.129,-0.799 3.645,-0.836 3.234,-0.836 H 0 v -7.171 h -0.88 z" style="fill:#231f20;fill-opacity:1;fill-rule:nonzero;stroke:none"/></g><g id="g1052" transform="translate(388.8975,164.9609)"><path id="path1054" d="M 0,0 H 9.196 V -0.814 H 0.88 v -6.908 h 7.436 v -0.77 H 0.88 v -7.414 H 9.526 V -16.72 H 0 Z" style="fill:#231f20;fill-opacity:1;fill-rule:nonzero;stroke:none"/></g><g id="g1056" transform="translate(412.1299,154.5767)"><path id="path1058" d="M 0,0 -3.851,9.504 -7.723,0 Z m -4.334,10.384 h 0.989 L 3.563,-6.335 h -0.99 l -2.265,5.543 h -8.361 l -2.243,-5.543 h -0.925 z" style="fill:#231f20;fill-opacity:1;fill-rule:nonzero;stroke:none"/></g><g id="g1060" transform="translate(421.4355,164.1465)"><path id="path1062" d="M 0,0 H -5.72 V 0.814 H 6.601 V 0 H 0.88 V -15.905 H 0 Z" style="fill:#231f20;fill-opacity:1;fill-rule:nonzero;stroke:none"/></g><g id="g1064" transform="translate(432.1709,164.9609)"><path id="path1066" d="M 0,0 H 9.196 V -0.814 H 0.88 v -6.908 h 7.436 v -0.77 H 0.88 v -7.414 H 9.526 V -16.72 H 0 Z" style="fill:#231f20;fill-opacity:1;fill-rule:nonzero;stroke:none"/></g></g></g></g></g></svg>