<?xml version="1.0" encoding="UTF-8" standalone="no"?>
<!DOCTYPE svg PUBLIC "-//W3C//DTD SVG 1.1//EN" "http://www.w3.org/Graphics/SVG/1.1/DTD/svg11.dtd">
<svg version="1.1" xmlns="http://www.w3.org/2000/svg" xmlns:xlink="http://www.w3.org/1999/xlink" preserveAspectRatio="xMidYMid meet" viewBox="0 0 640 640" width="640" height="640"><defs><path d="M123.87 248.69L125.07 248.75L126.27 248.84L127.46 248.95L128.64 249.09L129.82 249.26L130.98 249.45L132.12 249.68L133.26 249.93L134.37 250.22L135.47 250.53L136.55 250.88L137.61 251.26L138.65 251.68L139.66 252.13L140.65 252.61L141.62 253.13L142.55 253.69L143.46 254.28L144.34 254.91L145.18 255.58L146 256.29L146.77 257.04L147.52 257.82L148.22 258.65L148.89 259.53L149.51 260.44L150.09 261.4L150.63 262.41L151.13 263.46L151.58 264.55L151.98 265.69L152.33 266.88L152.64 268.12L152.89 269.4L153.08 270.74L153.23 272.12L153.31 273.55L153.34 275.04L153.32 276.52L153.26 277.91L153.15 279.24L153 280.49L152.82 281.68L152.6 282.79L152.35 283.85L152.07 284.84L151.76 285.78L151.42 286.66L151.05 287.48L150.66 288.25L150.25 288.98L149.82 289.66L149.38 290.29L148.92 290.89L148.44 291.44L147.95 291.96L147.46 292.45L146.95 292.9L146.44 293.32L145.93 293.72L145.41 294.1L144.9 294.45L144.38 294.79L143.88 295.11L143.37 295.41L142.88 295.7L142.4 295.99L141.92 296.27L141.47 296.54L141.02 296.82L140.6 297.09L140.2 297.37L139.81 297.66L139.46 297.95L139.12 298.25L138.82 298.57L138.55 298.91L138.3 299.26L138.34 299.27L138.45 299.3L138.62 299.36L138.85 299.44L139.14 299.54L139.49 299.67L139.88 299.83L140.33 300.01L140.82 300.21L141.34 300.44L141.91 300.7L142.51 300.99L143.13 301.31L143.78 301.65L144.46 302.02L145.15 302.43L145.86 302.86L146.57 303.32L147.3 303.82L148.03 304.35L148.76 304.91L149.48 305.5L150.2 306.13L150.91 306.79L151.6 307.48L152.27 308.21L152.92 308.98L153.55 309.78L154.15 310.61L154.71 311.49L155.24 312.4L155.73 313.35L156.17 314.34L156.57 315.37L156.92 316.43L157.21 317.54L157.44 318.69L157.61 319.88L157.72 321.11L157.75 322.39L157.74 323.69L157.71 325.01L157.67 326.35L157.59 327.71L157.49 329.08L157.36 330.46L157.21 331.84L157.01 333.23L156.78 334.62L156.52 336.01L156.21 337.4L155.86 338.77L155.46 340.14L155.02 341.49L154.53 342.83L153.98 344.15L153.38 345.45L152.72 346.73L152 347.98L151.22 349.2L150.37 350.38L149.46 351.54L148.48 352.65L147.43 353.72L146.3 354.75L145.09 355.74L143.81 356.67L142.45 357.56L141 358.38L139.46 359.16L137.84 359.87L136.13 360.51L134.32 361.1L132.42 361.61L130.42 362.05L128.32 362.42L126.11 362.71L123.8 362.92L121.39 363.05L118.86 363.1L58.34 363.1L58.34 248.64L121.45 248.64L122.66 248.66L123.87 248.69ZM87.87 341.1L90.86 341.1L93.74 341.09L96.51 341.07L99.17 341.03L101.71 340.95L104.15 340.84L106.46 340.69L108.66 340.49L110.74 340.22L112.7 339.9L114.54 339.49L116.25 339.01L117.83 338.45L119.28 337.79L120.61 337.02L121.8 336.15L122.86 335.16L123.78 334.05L124.56 332.81L125.21 331.43L125.71 329.9L126.07 328.23L126.29 326.39L126.36 324.38L126.24 322.71L125.9 321.17L125.36 319.78L124.61 318.51L123.68 317.36L122.58 316.33L121.33 315.41L119.92 314.6L118.38 313.88L116.72 313.25L114.96 312.71L113.09 312.25L111.15 311.87L109.13 311.54L107.06 311.28L104.94 311.08L102.78 310.92L100.61 310.8L98.43 310.72L96.26 310.67L94.1 310.64L91.98 310.62L89.9 310.62L87.87 310.62L87.87 341.1ZM87.87 291.9L90.84 291.9L93.7 291.89L96.44 291.86L99.05 291.81L101.55 291.73L103.92 291.6L106.16 291.43L108.27 291.19L110.25 290.89L112.1 290.52L113.81 290.06L115.38 289.52L116.82 288.87L118.11 288.12L119.26 287.25L120.26 286.25L121.11 285.13L121.82 283.86L122.37 282.44L122.76 280.87L123 279.13L123.08 277.22L122.96 275.62L122.59 274.17L122 272.85L121.2 271.67L120.2 270.62L119.02 269.69L117.68 268.87L116.18 268.15L114.55 267.53L112.8 267.01L110.95 266.56L109 266.2L106.98 265.9L104.9 265.66L102.77 265.48L100.61 265.35L98.44 265.25L96.27 265.19L94.11 265.16L91.98 265.14L89.9 265.14L87.87 265.14L87.87 291.9Z" id="eojbgHjA0"/><path d="M180.49 248.64L256.71 248.64L256.71 343.05L180.49 343.05L180.49 248.64Z" id="b38skRFAd"/><path d="M170.79 314.25C170.79 288.72 170.79 248.6 170.79 248.6C174.24 248.6 201.83 248.6 205.28 248.6C206.18 256.87 204.46 271.23 198.69 281.36C192.05 292.99 188.65 305.26 188.78 312.98C188.96 325.57 198.14 340.11 219.22 340.11C219.24 340.11 219.39 340.11 219.41 340.11C240.49 340.11 249.67 325.57 249.85 312.98C249.94 305.26 246.53 292.94 239.94 281.36C234.17 271.18 232.45 256.82 233.36 248.6C236.8 248.6 264.39 248.6 267.84 248.6C267.84 248.6 267.84 288.76 267.84 314.25C267.84 339.74 256.62 366.73 219.41 366.73C214.31 366.49 211.76 366.37 211.76 366.37C195.31 365.59 180.96 354.98 175.41 339.48C172.33 330.89 170.79 322.48 170.79 314.25Z" id="bckRZVuxU"/><path d="M204.87 248.6C204.87 248.6 205.41 230.29 215 229.15C215 229.15 215.23 225.56 219.27 225.56C219.3 225.56 219.52 225.56 219.54 225.56C223.59 225.56 223.81 229.15 223.81 229.15C233.36 230.33 233.95 248.6 233.95 248.6C232.99 248.6 228.18 248.6 219.54 248.6L219.27 248.6C210.63 248.6 205.83 248.6 204.87 248.6Z" id="cuuVtK7Wb"/><path d="M318.46 248.6C318.46 248.6 318.46 248.6 318.46 248.6C318.46 317.27 318.46 355.42 318.46 363.05C318.46 363.05 318.46 363.05 318.46 363.05C300.84 363.05 291.06 363.05 289.1 363.05C289.1 363.05 289.1 363.05 289.1 363.05C289.1 294.38 289.1 256.23 289.1 248.6C289.1 248.6 289.1 248.6 289.1 248.6C306.71 248.6 316.5 248.6 318.46 248.6Z" id="cVOp0FXIF"/><path d="M338.63 248.6L368.71 248.6L368.71 337.74L400.42 337.74L400.42 363.1L338.63 363.1L338.63 248.6Z" id="c1L3o95Pyq"/><path d="M459 248.74L461.71 248.91L464.35 249.15L466.95 249.46L469.49 249.84L471.97 250.3L474.39 250.82L476.76 251.41L479.06 252.07L481.31 252.81L483.49 253.61L485.61 254.49L487.67 255.44L489.66 256.46L491.58 257.55L493.44 258.71L495.24 259.94L496.96 261.25L498.61 262.63L500.19 264.09L501.7 265.61L503.14 267.21L504.51 268.88L505.79 270.63L507.01 272.45L508.14 274.35L509.2 276.31L510.18 278.36L511.08 280.47L511.9 282.67L512.64 284.94L513.29 287.28L513.86 289.7L514.35 292.19L514.75 294.76L515.06 297.41L515.28 300.13L515.42 302.93L515.46 305.8L515.41 308.68L515.24 311.48L514.96 314.21L514.58 316.86L514.1 319.43L513.52 321.92L512.83 324.34L512.06 326.69L511.19 328.96L510.22 331.15L509.17 333.27L508.04 335.32L506.82 337.29L505.51 339.18L504.13 341.01L502.68 342.75L501.15 344.43L499.55 346.03L497.88 347.56L496.14 349.01L494.34 350.39L492.48 351.7L490.56 352.94L488.58 354.1L486.55 355.19L484.47 356.21L482.34 357.16L480.16 358.03L477.93 358.84L475.67 359.57L473.37 360.24L471.02 360.83L468.65 361.35L466.24 361.8L463.8 362.19L461.34 362.5L458.85 362.74L456.34 362.91L453.81 363.02L451.26 363.05L413.1 363.05L413.1 248.6L453.44 248.6L456.25 248.63L459 248.74ZM444.31 338.15L458.03 338.15L459.12 338.13L460.2 338.06L461.27 337.94L462.34 337.77L463.4 337.55L464.45 337.29L465.48 336.97L466.51 336.61L467.52 336.2L468.51 335.74L469.48 335.23L470.44 334.67L471.37 334.06L472.28 333.4L473.17 332.69L474.03 331.94L474.86 331.13L475.67 330.27L476.44 329.36L477.18 328.4L477.9 327.39L478.57 326.33L479.21 325.21L479.81 324.05L480.37 322.83L480.89 321.57L481.37 320.25L481.81 318.88L482.2 317.46L482.54 315.98L482.83 314.45L483.08 312.87L483.27 311.24L483.41 309.56L483.49 307.82L483.52 306.03L483.49 304.24L483.41 302.5L483.27 300.82L483.08 299.18L482.84 297.61L482.55 296.08L482.2 294.61L481.81 293.19L481.38 291.82L480.9 290.5L480.37 289.23L479.81 288.02L479.2 286.86L478.55 285.75L477.86 284.69L477.14 283.68L476.38 282.72L475.58 281.81L474.75 280.95L473.89 280.15L473 279.39L472.08 278.69L471.13 278.03L470.15 277.42L469.15 276.86L468.12 276.36L467.08 275.9L466 275.49L464.91 275.13L463.8 274.81L462.67 274.55L461.53 274.33L460.37 274.17L459.19 274.05L458 273.98L456.81 273.95L444.31 273.95L444.31 338.15Z" id="c3KDidZNl"/><path d="M595.88 254.37C595.88 254.37 580.21 245.01 557.63 245.01C535.04 245.01 519.91 258.78 519.91 280.49C519.91 302.21 528.46 310.48 543.86 314.62C559.26 318.75 574.39 322.61 567.8 334.15C561.22 345.69 546.63 342.69 529 330.56C527.64 332.96 516.78 352.11 515.42 354.51C515.42 354.51 534.23 367.18 557.9 367.18C581.57 367.18 600.29 351.24 600.29 331.43C600.29 311.62 593.7 298.67 574.44 293.99C555.17 289.31 549.67 285.99 550.77 278.59C551.86 271.18 566.17 263.73 582.66 276.95C585.31 272.43 594.56 256.63 595.88 254.37Z" id="cIbaCkogk"/></defs><g><g><use xlink:href="#eojbgHjA0" opacity="1" fill="#ffffff" fill-opacity="1"/><g><use xlink:href="#eojbgHjA0" opacity="1" fill-opacity="0" stroke="#000000" stroke-width="1" stroke-opacity="0"/></g></g><g><use xlink:href="#b38skRFAd" opacity="1" fill="#ffffff" fill-opacity="1"/></g><g><use xlink:href="#bckRZVuxU" opacity="1" fill="#ed1c24" fill-opacity="1"/><g><use xlink:href="#bckRZVuxU" opacity="1" fill-opacity="0" stroke="#000000" stroke-width="1" stroke-opacity="0"/></g></g><g><use xlink:href="#cuuVtK7Wb" opacity="1" fill="#58595b" fill-opacity="1"/><g><use xlink:href="#cuuVtK7Wb" opacity="1" fill-opacity="0" stroke="#000000" stroke-width="1" stroke-opacity="0"/></g></g><g><use xlink:href="#cVOp0FXIF" opacity="1" fill="#ffffff" fill-opacity="1"/><g><use xlink:href="#cVOp0FXIF" opacity="1" fill-opacity="0" stroke="#000000" stroke-width="1" stroke-opacity="0"/></g></g><g><use xlink:href="#c1L3o95Pyq" opacity="1" fill="#ffffff" fill-opacity="1"/><g><use xlink:href="#c1L3o95Pyq" opacity="1" fill-opacity="0" stroke="#000000" stroke-width="1" stroke-opacity="0"/></g></g><g><use xlink:href="#c3KDidZNl" opacity="1" fill="#ffffff" fill-opacity="1"/><g><use xlink:href="#c3KDidZNl" opacity="1" fill-opacity="0" stroke="#000000" stroke-width="1" stroke-opacity="0"/></g></g><g><use xlink:href="#cIbaCkogk" opacity="1" fill="#ffffff" fill-opacity="1"/><g><use xlink:href="#cIbaCkogk" opacity="1" fill-opacity="0" stroke="#000000" stroke-width="1" stroke-opacity="0"/></g></g></g></svg>