<?xml version="1.0" encoding="utf-8"?>
<!-- Generator: Adobe Illustrator 23.0.3, SVG Export Plug-In . SVG Version: 6.00 Build 0)  -->
<svg version="1.1" xmlns="http://www.w3.org/2000/svg" xmlns:xlink="http://www.w3.org/1999/xlink" x="0px" y="0px"
	 viewBox="0 0 133.66 83.37" style="enable-background:new 0 0 133.66 83.37;" xml:space="preserve">
<style type="text/css">
	.st0{enable-background:new    ;}
	.st1{fill:#808285;}
	.st2{fill:#58595B;}
	.st3{fill:url(#SVGID_1_);}
	.st4{fill:url(#SVGID_2_);}
	.st5{fill:url(#SVGID_3_);}
	.st6{fill:url(#SVGID_4_);}
	.st7{fill:url(#SVGID_5_);}
	.st8{fill:url(#SVGID_6_);}
	.st9{fill:url(#SVGID_7_);}
	.st10{fill:url(#SVGID_8_);}
	.st11{fill:url(#SVGID_9_);}
	.st12{fill:url(#SVGID_10_);}
	.st13{fill:url(#SVGID_11_);}
	.st14{fill:url(#SVGID_12_);}
	.st15{fill:url(#SVGID_13_);}
	.st16{fill:url(#SVGID_14_);}
	.st17{fill:url(#SVGID_15_);}
	.st18{fill:url(#SVGID_16_);}
	.st19{fill:url(#SVGID_17_);}
	.st20{fill:url(#SVGID_18_);}
	.st21{fill:url(#SVGID_19_);}
	.st22{fill:url(#SVGID_20_);}
	.st23{fill:url(#SVGID_21_);}
	.st24{fill:url(#SVGID_22_);}
	.st25{fill:url(#SVGID_23_);}
	.st26{fill:url(#SVGID_24_);}
	.st27{fill:none;stroke:#000000;stroke-width:1.5;stroke-miterlimit:10;}
	.st28{fill:#FFFFFF;}
	.st29{fill:#ED1C24;}
	.st30{fill:url(#SVGID_25_);}
	.st31{fill:url(#SVGID_26_);}
	.st32{fill:url(#SVGID_27_);}
	.st33{fill:none;stroke:#58595B;stroke-width:1.5;stroke-miterlimit:10;}
</style>
<g id="Layer_2">
</g>
<g id="Layer_1">
</g>
<g id="Layer_3">
</g>
<g id="Layer_4">
	<g>
		<rect x="18.15" y="9.99" class="st29" width="101.51" height="62.03"/>
		<g id="_x30_xBU_2_">
			<g id="_x30_xBU_3_">
				<path class="st28" d="M30.92,35.28c0-7.21,3.24-10.9,8.14-10.9c4.9,0,8.14,3.69,8.14,10.9c0,7.19-3.24,11.08-8.14,11.08
					C34.16,46.36,30.92,42.47,30.92,35.28z M42.83,35.28c0-5.5-1.67-7.1-3.77-7.1c-2.1,0-3.77,1.6-3.77,7.1
					c0,5.5,1.67,7.28,3.77,7.28C41.17,42.56,42.83,40.78,42.83,35.28z M36.56,35.21c0-1.54,1.09-2.54,2.5-2.54
					c1.41,0,2.5,1,2.5,2.54c0,1.55-1.09,2.55-2.5,2.55C37.65,37.76,36.56,36.76,36.56,35.21z"/>
				<path class="st28" d="M56.04,37.36l-5.36-7.95h5.27l1.7,2.67c0.49,0.92,1.16,1.92,1.71,2.83h0.13c0.43-0.92,0.95-1.92,1.38-2.84
					l1.46-2.66h5.13l-5.4,8.5l5.75,8.05h-5.28l-1.89-2.72c-0.6-0.92-1.29-1.95-1.89-2.89h-0.13c-0.5,0.94-1.05,1.91-1.54,2.9
					l-1.63,2.72h-5.13L56.04,37.36z"/>
				<path class="st28" d="M71.54,24.23h7.31c4.52,0,7.96,1.24,7.96,5.38c0,1.95-1.16,4.03-3.72,4.7v0.13
					c3.11,0.57,4.73,2.21,4.73,5.12c0,4.42-3.62,6.4-8.36,6.4h-7.93V24.23z M78.62,32.95c2.39,0,3.38-1.01,3.38-2.65
					c0-1.62-1.06-2.25-3.35-2.25h-2.21v4.9H78.62z M79.07,42.13c2.68,0,3.95-0.97,3.95-2.95c0-1.91-1.25-2.7-3.95-2.7h-2.62v5.65
					H79.07z"/>
				<path class="st28" d="M91.22,37.59V24.23h4.93v13.87c0,2.6,0.96,4.02,3.01,4.02c2.06,0,3.07-1.42,3.07-4.02V24.23h4.75v13.37
					c0,5.64-2.54,8.77-7.82,8.77C93.87,46.36,91.22,43.24,91.22,37.59z"/>
			</g>
			<g>
				<path class="st28" d="M33.99,58.25c-1.19,0-1.93-0.6-1.93-1.96v-5.56c0-1.33,0.74-2.01,1.91-2.01c1.06,0,1.83,0.37,1.83,2.03
					c0,0.46-0.05,0.91-0.1,1.26l-1.21-0.1c0.05-0.32,0.08-0.66,0.08-0.99c0-0.86-0.2-0.99-0.49-0.99s-0.42,0.12-0.42,0.59v5.89
					c0,0.42,0.11,0.61,0.47,0.61c0.26,0,0.44-0.18,0.44-1.06c0-0.29-0.04-0.64-0.08-0.98l1.23-0.1c0.05,0.34,0.1,0.73,0.1,1.27
					C35.81,57.86,35.04,58.25,33.99,58.25z"/>
				<path class="st28" d="M41.15,58.1h-1.61l-0.12-1.29h-0.95l-0.12,1.29h-1.33l1.19-9.23h1.72L41.15,58.1z M39.27,55.53l-0.29-3.68
					l-0.37,3.68H39.27z"/>
				<path class="st28" d="M44.52,54.8h-0.36v3.3h-1.6v-9.23h1.9c1.37,0,2.04,0.73,2.04,2.92C46.5,54.1,45.65,54.8,44.52,54.8z
					 M44.32,50.15h-0.17v3.38h0.18c0.36,0,0.6-0.36,0.6-1.74C44.94,50.5,44.72,50.15,44.32,50.15z"/>
				<path class="st28" d="M51.52,50.15h-1.26v7.98h-1.6v-7.98h-1.25v-1.27h4.11V50.15z"/>
				<path class="st28" d="M56.85,56.31c0,1.29-0.79,1.93-1.97,1.93c-1.21,0-1.96-0.65-1.96-1.92v-7.45h1.59v7.6
					c0,0.35,0.18,0.53,0.46,0.53c0.25,0,0.36-0.18,0.36-0.54v-7.59h1.53V56.31z"/>
				<path class="st28" d="M60.85,58.13c-0.07-0.17-0.11-0.36-0.12-0.55c-0.02-0.81-0.02-1.11-0.04-1.69
					c-0.02-1.38-0.22-1.53-0.41-1.53h-0.23v3.77h-1.6v-9.25h1.99c1.29,0,1.97,0.73,1.97,2.43c0,1.29-0.11,1.97-0.91,2.37
					c0.7,0.44,0.77,1.53,0.77,2.11v0.7c0,0.87,0.05,1.2,0.16,1.65H60.85z M60.27,50.15h-0.22v2.92h0.2c0.36,0,0.6-0.29,0.6-1.53
					C60.86,50.34,60.62,50.15,60.27,50.15z"/>
				<path class="st28" d="M67.16,58.1h-3.24v-9.23h3.23v1.27h-1.63v2.56h1.36v1.3h-1.36v2.82h1.65V58.1z"/>
				<path class="st28" d="M74.7,50.15h-1.26v7.98h-1.6v-7.98h-1.25v-1.27h4.11V50.15z"/>
				<path class="st28" d="M80.24,58.13h-1.59v-4.08h-0.91v4.06h-1.59v-9.23h1.59v3.87h0.91v-3.87h1.59V58.13z"/>
				<path class="st28" d="M85.14,58.1h-3.24v-9.23h3.23v1.27h-1.63v2.56h1.36v1.3h-1.36v2.82h1.65V58.1z"/>
				<path class="st28" d="M92.01,50.15h-1.63v2.76h1.36v1.26h-1.36v3.95h-1.6v-9.25h3.23V50.15z"/>
				<path class="st28" d="M96.71,58.13h-3.24v-9.25h1.6v7.94h1.65V58.13z"/>
				<path class="st28" d="M102.08,58.1h-1.61l-0.12-1.29H99.4l-0.12,1.29h-1.33l1.19-9.23h1.72L102.08,58.1z M100.2,55.53
					l-0.29-3.68l-0.37,3.68H100.2z"/>
				<path class="st28" d="M107.18,58.1h-0.43l-0.24-0.4c-0.34,0.38-0.76,0.54-1.5,0.54c-1.08,0-1.78-0.61-1.78-1.85v-5.62
					c0-1.37,0.77-2.05,1.96-2.05c1.09,0,1.78,0.43,1.78,2.07c0,0.44-0.04,0.86-0.08,1.18l-1.21-0.1c0.04-0.26,0.07-0.5,0.07-0.91
					c0-0.88-0.19-1.01-0.46-1.01c-0.36,0-0.46,0.19-0.46,0.61v5.96c0,0.35,0.13,0.53,0.44,0.53c0.25,0,0.38-0.18,0.38-0.53v-2.83
					h1.53V58.1z"/>
			</g>
		</g>
	</g>
</g>
</svg>
