<?xml version="1.0" encoding="utf-8"?>
<!-- Generator: Adobe Illustrator 23.0.3, SVG Export Plug-In . SVG Version: 6.00 Build 0)  -->
<svg version="1.1" xmlns="http://www.w3.org/2000/svg" xmlns:xlink="http://www.w3.org/1999/xlink" x="0px" y="0px"
	 viewBox="0 0 140.86 83.37" style="enable-background:new 0 0 140.86 83.37;" xml:space="preserve">
<style type="text/css">
	.st0{enable-background:new    ;}
	.st1{fill:#808285;}
	.st2{fill:#58595B;}
	.st3{fill:url(#SVGID_1_);}
	.st4{fill:url(#SVGID_2_);}
	.st5{fill:url(#SVGID_3_);}
	.st6{fill:url(#SVGID_4_);}
	.st7{fill:url(#SVGID_5_);}
	.st8{fill:url(#SVGID_6_);}
	.st9{fill:url(#SVGID_7_);}
	.st10{fill:url(#SVGID_8_);}
	.st11{fill:url(#SVGID_9_);}
	.st12{fill:url(#SVGID_10_);}
	.st13{fill:url(#SVGID_11_);}
	.st14{fill:url(#SVGID_12_);}
	.st15{fill:url(#SVGID_13_);}
	.st16{fill:url(#SVGID_14_);}
	.st17{fill:url(#SVGID_15_);}
	.st18{fill:url(#SVGID_16_);}
	.st19{fill:url(#SVGID_17_);}
	.st20{fill:url(#SVGID_18_);}
	.st21{fill:url(#SVGID_19_);}
	.st22{fill:url(#SVGID_20_);}
	.st23{fill:url(#SVGID_21_);}
	.st24{fill:url(#SVGID_22_);}
	.st25{fill:url(#SVGID_23_);}
	.st26{fill:url(#SVGID_24_);}
	.st27{fill:none;stroke:#000000;stroke-width:1.5;stroke-miterlimit:10;}
	.st28{fill:#FFFFFF;}
	.st29{fill:#ED1C24;}
	.st30{fill:url(#SVGID_25_);}
	.st31{fill:url(#SVGID_26_);}
	.st32{fill:url(#SVGID_27_);}
	.st33{fill:none;stroke:#58595B;stroke-width:1.5;stroke-miterlimit:10;}
</style>
<g id="Layer_2">
</g>
<g id="Layer_1">
	<g id="BUILDS_1_">
		<path d="M30.44,37.12c0,0,3.31-0.89,3.31-5.33c0-4.44-3.46-5.81-7.02-5.81s-13.89,0-13.89,0v25.19c0,0,5.74,0,13.32,0
			c7.58,0,8.56-5.17,8.56-8.96C34.72,38.41,30.44,37.12,30.44,37.12z M19.34,29.61c3.21,0,7.75-0.05,7.75,2.66
			c0,3.23-2.86,3.23-7.75,3.23C19.34,35.5,19.34,30.35,19.34,29.61z M19.34,46.33c0,0,0-5.86,0-6.71c3.51,0,8.47-0.05,8.47,3.03
			C27.82,46.33,24.69,46.33,19.34,46.33z"/>
		<g>
			<path class="st29" d="M48.25,51.97c-8.2,0-10.66-5.93-10.66-11.55s0-14.45,0-14.45h7.59c0.2,1.82-0.18,4.98-1.45,7.21
				c-1.46,2.56-2.21,5.26-2.18,6.96c0.04,2.77,2.06,5.97,6.7,5.97h0.04c4.64,0,6.66-3.2,6.7-5.97c0.02-1.7-0.73-4.41-2.18-6.96
				c-1.27-2.24-1.65-5.4-1.45-7.21h7.59c0,0,0,8.84,0,14.45s-2.47,11.55-10.66,11.55H48.25z"/>
			<path class="st2" d="M48.26,25.97h-3.17c0,0,0.12-4.03,2.23-4.28c0,0,0.05-0.79,0.94-0.79h0.06c0.89,0,0.94,0.79,0.94,0.79
				c2.1,0.26,2.23,4.28,2.23,4.28h-3.17H48.26z"/>
		</g>
		<rect x="63.63" y="25.97" width="6.46" height="25.19"/>
		<polygon points="74.53,51.17 74.53,25.97 81.15,25.97 81.15,45.59 88.13,45.59 88.13,51.17 		"/>
		<path d="M99.8,25.97c-5.49,0-8.88,0-8.88,0v25.19c0,0,0.9,0,8.4,0c7.5,0,14.13-4.04,14.13-12.6
			C113.45,30.01,108.11,25.97,99.8,25.97z M100.81,45.68c-2.87,0-3.02,0-3.02,0V31.55c0,0,0.64,0,2.75,0c3.18,0,5.88,2.26,5.88,7.06
			S103.68,45.68,100.81,45.68z"/>
		<path d="M128.24,32.21l2.91-4.97c0,0-3.45-2.06-8.42-2.06c-4.97,0-8.3,3.03-8.3,7.81s1.88,6.6,5.27,7.51
			c3.39,0.91,6.72,1.76,5.27,4.3c-1.45,2.54-4.66,1.88-8.54-0.79l-2.99,5.27c0,0,4.14,2.79,9.35,2.79c5.21,0,9.33-3.51,9.33-7.87
			s-1.45-7.21-5.69-8.24s-5.45-1.76-5.21-3.39C121.46,30.94,124.61,29.3,128.24,32.21z"/>
	</g>
</g>
<g id="Layer_3">
</g>
<g id="Layer_4">
</g>
</svg>
