<?xml version="1.0" encoding="UTF-8" standalone="no"?>
<!DOCTYPE svg PUBLIC "-//W3C//DTD SVG 1.1//EN" "http://www.w3.org/Graphics/SVG/1.1/DTD/svg11.dtd">
<svg version="1.1" xmlns="http://www.w3.org/2000/svg" xmlns:xlink="http://www.w3.org/1999/xlink" preserveAspectRatio="xMidYMid meet" viewBox="0 2.842170943040401e-14 541.95087320744 141.62146812437882" width="542" height="142"><defs><path d="M65.53 23.13L66.73 23.19L67.93 23.28L69.12 23.39L70.31 23.53L71.48 23.69L72.64 23.89L73.78 24.11L74.92 24.37L76.03 24.65L77.13 24.97L78.21 25.32L79.27 25.7L80.31 26.11L81.32 26.56L82.31 27.05L83.28 27.57L84.22 28.12L85.12 28.72L86 29.35L86.85 30.01L87.66 30.72L88.44 31.47L89.18 32.26L89.88 33.09L90.55 33.96L91.17 34.88L91.76 35.84L92.3 36.84L92.79 37.89L93.24 38.99L93.64 40.13L94 41.32L94.3 42.55L94.55 43.84L94.75 45.17L94.89 46.56L94.98 47.99L95 49.48L94.98 50.95L94.92 52.35L94.81 53.68L94.67 54.93L94.48 56.11L94.26 57.23L94.01 58.29L93.73 59.28L93.42 60.21L93.08 61.09L92.71 61.92L92.33 62.69L91.92 63.42L91.49 64.09L91.04 64.73L90.58 65.32L90.1 65.88L89.61 66.4L89.12 66.88L88.61 67.34L88.1 67.76L87.59 68.16L87.07 68.54L86.56 68.89L86.05 69.22L85.54 69.54L85.04 69.85L84.54 70.14L84.06 70.43L83.58 70.71L83.13 70.98L82.68 71.25L82.26 71.53L81.86 71.81L81.48 72.09L81.12 72.39L80.79 72.69L80.48 73.01L80.21 73.34L79.97 73.7L80 73.71L80.11 73.74L80.28 73.8L80.51 73.88L80.8 73.98L81.15 74.11L81.54 74.26L81.99 74.44L82.48 74.65L83 74.88L83.57 75.14L84.17 75.43L84.79 75.74L85.44 76.09L86.12 76.46L86.81 76.86L87.52 77.3L88.24 77.76L88.96 78.26L89.69 78.78L90.42 79.34L91.14 79.94L91.86 80.56L92.57 81.22L93.26 81.92L93.93 82.65L94.59 83.41L95.21 84.21L95.81 85.05L96.37 85.93L96.9 86.84L97.39 87.79L97.83 88.78L98.23 89.8L98.58 90.87L98.87 91.98L99.1 93.13L99.27 94.32L99.38 95.55L99.41 96.82L99.4 98.13L99.38 99.45L99.33 100.79L99.25 102.15L99.15 103.52L99.03 104.89L98.87 106.28L98.67 107.67L98.45 109.06L98.18 110.45L97.87 111.83L97.52 113.21L97.12 114.58L96.68 115.93L96.19 117.27L95.64 118.59L95.04 119.89L94.38 121.17L93.66 122.42L92.88 123.63L92.04 124.82L91.12 125.97L90.14 127.09L89.09 128.16L87.96 129.19L86.76 130.18L85.47 131.11L84.11 131.99L82.66 132.82L81.13 133.59L79.5 134.3L77.79 134.95L75.98 135.53L74.08 136.05L72.08 136.49L69.98 136.86L67.77 137.15L65.46 137.36L63.05 137.49L60.52 137.53L0 137.53L0 23.08L63.11 23.08L64.32 23.09L65.53 23.13ZM29.53 115.54L32.52 115.54L35.4 115.53L38.17 115.51L40.83 115.46L43.37 115.39L45.81 115.28L48.12 115.13L50.32 114.92L52.4 114.66L54.36 114.33L56.2 113.93L57.91 113.45L59.49 112.88L60.95 112.22L62.27 111.46L63.46 110.59L64.52 109.6L65.44 108.49L66.23 107.25L66.87 105.87L67.37 104.34L67.73 102.66L67.95 100.83L68.02 98.82L67.9 97.15L67.56 95.61L67.02 94.21L66.27 92.94L65.35 91.8L64.25 90.77L62.99 89.85L61.58 89.03L60.04 88.32L58.39 87.69L56.62 87.15L54.76 86.69L52.81 86.3L50.79 85.98L48.72 85.72L46.6 85.51L44.45 85.36L42.27 85.24L40.09 85.16L37.92 85.1L35.77 85.07L33.64 85.06L31.56 85.05L29.53 85.05L29.53 115.54ZM29.53 66.34L32.51 66.33L35.36 66.32L38.1 66.3L40.71 66.25L43.21 66.16L45.58 66.04L47.82 65.86L49.93 65.63L51.91 65.33L53.76 64.96L55.47 64.5L57.04 63.95L58.48 63.31L59.77 62.55L60.92 61.68L61.92 60.69L62.78 59.56L63.48 58.3L64.03 56.88L64.43 55.31L64.66 53.57L64.75 51.66L64.62 50.06L64.25 48.6L63.66 47.29L62.86 46.11L61.86 45.06L60.68 44.12L59.34 43.3L57.84 42.59L56.21 41.97L54.46 41.44L52.61 41L50.66 40.63L48.64 40.33L46.56 40.1L44.43 39.92L42.27 39.78L40.1 39.69L37.93 39.63L35.77 39.59L33.64 39.58L31.56 39.57L29.53 39.57L29.53 66.34Z" id="b1f5wyKMRb"/><path d="M135.53 134.61C116.88 121.13 112.45 101.63 112.45 88.69C112.45 63.15 112.45 23.04 112.45 23.04C115.9 23.04 143.49 23.04 146.94 23.04C147.85 31.3 146.12 45.66 140.35 55.79C133.72 67.43 130.31 79.69 130.44 87.42C130.63 100 139.8 114.54 160.89 114.54C160.9 114.54 161.05 114.54 161.07 114.54C182.15 114.54 191.33 100 191.51 87.42C191.6 79.69 188.19 67.38 181.6 55.79C175.83 45.62 174.11 31.26 175.02 23.04C178.46 23.04 206.05 23.04 209.5 23.04C209.5 23.04 209.5 63.2 209.5 88.69C209.5 114.18 198.28 141.17 161.07 141.17C161.06 141.17 161 141.17 160.89 141.17C149.87 141.05 141.42 138.87 135.53 134.61Z" id="aKS8muK3v"/><path d="M146.53 23.04C146.53 23.04 147.07 4.73 156.66 3.59C156.66 3.59 156.89 0 160.93 0C160.96 0 161.18 0 161.2 0C165.25 0 165.47 3.59 165.47 3.59C175.02 4.77 175.61 23.04 175.61 23.04C174.65 23.04 169.85 23.04 161.2 23.04L160.93 23.04C152.29 23.04 147.49 23.04 146.53 23.04Z" id="ebmmOs33V"/><path d="M260.12 23.04C260.12 23.04 260.12 23.04 260.12 23.04C260.12 91.71 260.12 129.86 260.12 137.49C260.12 137.49 260.12 137.49 260.12 137.49C242.51 137.49 232.72 137.49 230.77 137.49C230.77 137.49 230.77 137.49 230.77 137.49C230.77 68.82 230.77 30.67 230.77 23.04C230.77 23.04 230.77 23.04 230.77 23.04C248.38 23.04 258.16 23.04 260.12 23.04Z" id="aLwJw5yx"/><path d="M280.29 23.04L310.37 23.04L310.37 112.18L342.08 112.18L342.08 137.53L280.29 137.53L280.29 23.04Z" id="j3egrhMPaF"/><path d="M400.67 23.17L403.37 23.35L406.02 23.59L408.61 23.9L411.15 24.28L413.63 24.73L416.05 25.26L418.42 25.85L420.72 26.51L422.97 27.24L425.15 28.05L427.27 28.93L429.33 29.87L431.32 30.89L433.25 31.98L435.11 33.15L436.9 34.38L438.62 35.69L440.27 37.07L441.85 38.52L443.37 40.05L444.8 41.65L446.17 43.32L447.46 45.07L448.67 46.89L449.8 48.78L450.86 50.75L451.84 52.79L452.74 54.91L453.56 57.1L454.3 59.37L454.95 61.72L455.52 64.13L456.01 66.63L456.41 69.2L456.72 71.84L456.94 74.56L457.08 77.36L457.12 80.24L457.07 83.12L456.9 85.92L456.63 88.64L456.25 91.29L455.76 93.86L455.18 96.36L454.5 98.78L453.72 101.13L452.85 103.4L451.88 105.59L450.83 107.71L449.7 109.76L448.48 111.73L447.18 113.62L445.8 115.44L444.34 117.19L442.81 118.87L441.21 120.47L439.54 121.99L437.8 123.45L436 124.83L434.14 126.14L432.22 127.37L430.24 128.54L428.21 129.63L426.13 130.65L424 131.6L421.82 132.47L419.6 133.28L417.33 134.01L415.03 134.67L412.69 135.27L410.31 135.79L407.9 136.24L405.47 136.62L403 136.93L400.51 137.18L398 137.35L395.47 137.45L392.92 137.49L354.76 137.49L354.76 23.04L395.1 23.04L397.91 23.07L400.67 23.17ZM385.97 112.59L399.69 112.59L400.78 112.56L401.86 112.49L402.93 112.37L404 112.2L405.06 111.99L406.11 111.72L407.15 111.41L408.17 111.05L409.18 110.64L410.17 110.18L411.14 109.67L412.1 109.11L413.03 108.5L413.94 107.84L414.83 107.13L415.69 106.37L416.52 105.56L417.33 104.71L418.1 103.8L418.85 102.84L419.56 101.83L420.23 100.76L420.87 99.65L421.47 98.49L422.03 97.27L422.55 96L423.03 94.69L423.47 93.31L423.86 91.89L424.2 90.42L424.49 88.89L424.74 87.31L424.93 85.68L425.07 83.99L425.15 82.26L425.18 80.47L425.15 78.67L425.07 76.94L424.93 75.25L424.74 73.62L424.5 72.04L424.21 70.52L423.87 69.04L423.48 67.62L423.04 66.25L422.56 64.94L422.03 63.67L421.47 62.46L420.86 61.29L420.21 60.18L419.52 59.12L418.8 58.11L418.04 57.16L417.24 56.25L416.41 55.39L415.55 54.59L414.66 53.83L413.74 53.12L412.79 52.47L411.81 51.86L410.81 51.3L409.79 50.79L408.74 50.33L407.67 49.92L406.57 49.56L405.46 49.25L404.33 48.99L403.19 48.77L402.03 48.6L400.85 48.48L399.67 48.41L398.47 48.39L385.97 48.39L385.97 112.59Z" id="d1vEzG7kDB"/><path d="M537.54 28.81C537.54 28.81 521.87 19.45 499.29 19.45C476.71 19.45 461.58 33.21 461.58 54.93C461.58 76.65 470.12 84.92 485.52 89.05C500.92 93.19 516.05 97.05 509.46 108.59C502.88 120.13 488.29 117.13 470.66 105C469.3 107.4 458.44 126.55 457.08 128.95C457.08 128.95 475.89 141.62 499.56 141.62C523.23 141.62 541.95 125.67 541.95 105.86C541.95 86.05 535.36 73.11 516.1 68.43C496.83 63.75 491.34 60.43 492.43 53.02C493.52 45.62 507.83 38.17 524.32 51.39C526.97 46.87 536.22 31.06 537.54 28.81Z" id="fjUPTDBHN"/></defs><g><g><use xlink:href="#b1f5wyKMRb" opacity="1" fill="#000000" fill-opacity="1"/><g><use xlink:href="#b1f5wyKMRb" opacity="1" fill-opacity="0" stroke="#000000" stroke-width="1" stroke-opacity="0"/></g></g><g><use xlink:href="#aKS8muK3v" opacity="1" fill="#ed1c24" fill-opacity="1"/><g><use xlink:href="#aKS8muK3v" opacity="1" fill-opacity="0" stroke="#000000" stroke-width="1" stroke-opacity="0"/></g></g><g><use xlink:href="#ebmmOs33V" opacity="1" fill="#58595b" fill-opacity="1"/><g><use xlink:href="#ebmmOs33V" opacity="1" fill-opacity="0" stroke="#000000" stroke-width="1" stroke-opacity="0"/></g></g><g><use xlink:href="#aLwJw5yx" opacity="1" fill="#000000" fill-opacity="1"/><g><use xlink:href="#aLwJw5yx" opacity="1" fill-opacity="0" stroke="#000000" stroke-width="1" stroke-opacity="0"/></g></g><g><use xlink:href="#j3egrhMPaF" opacity="1" fill="#000000" fill-opacity="1"/><g><use xlink:href="#j3egrhMPaF" opacity="1" fill-opacity="0" stroke="#000000" stroke-width="1" stroke-opacity="0"/></g></g><g><use xlink:href="#d1vEzG7kDB" opacity="1" fill="#000000" fill-opacity="1"/><g><use xlink:href="#d1vEzG7kDB" opacity="1" fill-opacity="0" stroke="#000000" stroke-width="1" stroke-opacity="0"/></g></g><g><use xlink:href="#fjUPTDBHN" opacity="1" fill="#000000" fill-opacity="1"/><g><use xlink:href="#fjUPTDBHN" opacity="1" fill-opacity="0" stroke="#000000" stroke-width="1" stroke-opacity="0"/></g></g></g></svg>